<svg width="805" height="596" viewBox="0 0 805 596" fill="none" xmlns="http://www.w3.org/2000/svg">
<circle cx="423.175" cy="397.268" r="354.707" fill="#ECEFF4"/>
<path fill-rule="evenodd" clip-rule="evenodd" d="M335.264 8.6266C336.706 15.0952 343.116 19.1505 349.626 17.9107C373.197 13.4221 397.539 11.0703 422.449 11.0703C635.934 11.0703 808.97 183.992 808.97 397.268C808.97 610.543 635.934 783.465 422.449 783.465C227.826 783.465 66.7951 639.731 39.8839 452.744C38.9398 446.184 33.0185 441.423 26.4325 442.163L10.5324 443.948C3.94633 444.687 -0.809149 450.642 0.115534 457.205C24.8271 632.586 156.327 773.672 326.783 812.703C327.649 812.901 328.538 813 329.427 813H515.468C516.357 813 517.246 812.901 518.113 812.703C707.604 769.312 848.97 599.796 848.97 397.268C848.97 161.87 657.995 -28.9297 422.449 -28.9297C394.582 -28.9297 367.322 -26.2566 340.918 -21.1479C334.411 -19.889 330.339 -13.4585 331.782 -6.98992L335.264 8.6266Z" fill="#ECEFF4"/>
</svg>
