<svg width="1140" height="768" viewBox="0 0 1140 768" fill="none" xmlns="http://www.w3.org/2000/svg">
<g clip-path="url(#clip0_153_893)">
<circle cx="702.4" cy="521" r="372" fill="#F2F5F9"/>
<path fill-rule="evenodd" clip-rule="evenodd" d="M610.629 113.032C612.071 119.5 618.481 123.556 624.989 122.307C649.957 117.513 675.751 115 702.149 115C926.58 115 1108.49 296.787 1108.49 521C1108.49 633.016 1063.08 734.442 989.658 807.902C981.771 815.793 987.154 830 998.311 830H1018.9C1022.16 830 1025.29 828.676 1027.53 826.298C1102.54 746.508 1148.49 639.119 1148.49 521C1148.49 274.666 948.641 75 702.149 75C672.794 75 644.083 77.8344 616.281 83.2496C609.776 84.5167 605.704 90.9464 607.147 97.415L610.629 113.032ZM376.772 826.298C379.008 828.676 382.137 830 385.4 830H405.988C417.145 830 422.527 815.793 414.64 807.902C354.048 747.286 312.537 667.628 299.879 578.696C298.945 572.135 293.025 567.388 286.439 568.128L270.539 569.913C263.953 570.652 259.197 576.597 260.113 583.161C273.157 676.597 315.162 760.759 376.772 826.298Z" fill="#F2F5F9"/>
<g clip-path="url(#clip1_153_893)">
<path d="M127.412 646.204H343.65V768H127.412V646.204Z" fill="#798EBC"/>
<path d="M127.412 646.204H209.563V768H127.412V646.204Z" fill="#2A447B"/>
<path d="M168.488 683.522H197.288V753.434H168.488V683.522Z" fill="#2F3134"/>
<path d="M142.057 667.6C142.057 668.85 143.071 669.864 144.32 669.864C145.569 669.864 146.583 668.85 146.583 667.6C146.583 666.35 145.569 665.336 144.32 665.336C143.071 665.336 142.057 666.349 142.057 667.6Z" fill="#2F3134"/>
<path d="M135.027 679.162C136.276 679.162 137.29 678.148 137.29 676.898C137.29 675.648 136.276 674.634 135.027 674.634C133.778 674.634 132.764 675.648 132.764 676.898C132.764 678.149 133.776 679.162 135.027 679.162Z" fill="#2F3134"/>
<path d="M153.613 679.162C154.862 679.162 155.876 678.148 155.876 676.898C155.876 675.648 154.862 674.634 153.613 674.634C152.363 674.634 151.35 675.648 151.35 676.898C151.35 678.149 152.363 679.162 153.613 679.162Z" fill="#2F3134"/>
<path d="M137.748 685.737C136.498 685.737 135.485 684.723 135.485 683.473C135.485 682.222 136.498 681.209 137.748 681.209C138.998 681.209 140.011 682.222 140.011 683.473C140.011 684.723 138.998 685.737 137.748 685.737Z" fill="#2F3134"/>
<path d="M150.892 672.587C149.642 672.587 148.628 671.573 148.628 670.323C148.628 669.072 149.642 668.058 150.892 668.058C152.141 668.058 153.155 669.072 153.155 670.323C153.155 671.573 152.141 672.587 150.892 672.587Z" fill="#2F3134"/>
<path d="M152.311 681.507C151.447 680.642 150.046 680.642 149.182 681.507C148.318 682.371 148.318 683.774 149.182 684.638C150.046 685.503 151.447 685.503 152.311 684.638C153.175 683.774 153.175 682.373 152.311 681.507Z" fill="#2F3134"/>
<path d="M137.748 672.587C136.498 672.587 135.485 671.573 135.485 670.323C135.485 669.072 136.498 668.058 137.748 668.058C138.998 668.058 140.011 669.072 140.011 670.323C140.011 671.573 138.998 672.587 137.748 672.587Z" fill="#2F3134"/>
<path d="M144.32 679.162C143.07 679.162 142.057 678.148 142.057 676.898C142.057 675.647 143.07 674.634 144.32 674.634C145.57 674.634 146.583 675.647 146.583 676.898C146.583 678.148 145.57 679.162 144.32 679.162Z" fill="#2F3134"/>
<path d="M142.106 685.737C142.106 686.96 143.097 687.952 144.32 687.952C145.542 687.952 146.533 686.961 146.533 685.737C146.533 684.514 145.543 683.522 144.32 683.522C143.098 683.522 142.106 684.513 142.106 685.737Z" fill="#2F3134"/>
<path d="M672.194 729.562H869.454V723.337C869.454 708.757 857.641 696.938 843.068 696.938H698.58C684.008 696.938 672.194 708.757 672.194 723.337V729.562Z" stroke="#FFA700" stroke-width="4" stroke-miterlimit="10"/>
<path d="M745.468 729.562H794.919V750.418H745.468V729.562Z" stroke="#FFA700" stroke-width="4" stroke-miterlimit="10"/>
<path d="M770.193 750.417V768" stroke="#FFA700" stroke-width="4" stroke-miterlimit="10"/>
<path d="M869.454 729.562H897.151L923.177 498.757C923.177 474.086 903.189 454.089 878.531 454.089H807.758C783.102 454.089 763.113 474.088 763.113 498.757L740.765 696.938" stroke="#FFA700" stroke-width="4" stroke-miterlimit="10"/>
<path d="M806.54 434.759H869.34C885.351 434.759 898.452 421.652 898.452 405.632C898.452 389.612 885.351 376.505 869.34 376.505H806.54C790.528 376.505 777.428 389.612 777.428 405.632C777.428 421.652 790.528 434.759 806.54 434.759Z" stroke="#FFA700" stroke-width="4" stroke-miterlimit="10"/>
<path d="M845.32 660.452H932.714C941.068 660.452 947.902 653.614 947.902 645.256C947.902 636.899 941.068 630.061 932.714 630.061H845.321C836.968 630.061 830.133 636.899 830.133 645.256C830.132 653.614 836.966 660.452 845.32 660.452Z" stroke="#FFA700" stroke-width="4" stroke-miterlimit="10"/>
<path d="M750.1 630.059H693.389C685.036 630.059 678.201 636.897 678.201 645.255C678.201 653.613 685.036 660.451 693.389 660.451H744.879" stroke="#FFFFF8" stroke-width="4" stroke-miterlimit="10"/>
<path d="M807.438 152.427C761.877 127.235 704.433 143.909 679.132 189.668C660.967 222.521 664.313 261.433 684.503 290.093L662.952 318.741L702.816 309.45C706.843 312.645 711.169 315.565 715.814 318.133C761.375 343.325 818.819 326.652 844.12 280.893C869.421 235.133 852.997 177.618 807.438 152.427Z" fill="white"/>
<path d="M785.849 246.234C784.39 245.417 782.559 245.964 781.572 247.314C777.437 252.967 770.749 256.646 763.207 256.646C750.673 256.646 740.485 246.5 740.485 234.018C740.485 221.536 750.673 211.391 763.207 211.391C770.322 211.391 776.67 214.684 780.838 219.803C781.858 221.055 783.629 221.519 785.03 220.715L803.692 209.992C805.147 209.156 805.641 207.284 804.693 205.9C795.655 192.695 780.435 184 763.207 184C735.52 184 713 206.427 713 234C713 261.573 735.52 284 763.207 284C780.926 284 796.542 274.79 805.468 260.938C806.358 259.556 805.855 257.736 804.432 256.913L789.674 248.378L785.849 246.234Z" fill="#FFA700"/>
<path d="M795.139 243H789.896L792.313 237.165H788L789.357 233.939H793.671L795.27 230.044H790.752L792.109 226.817H796.627L799.044 221H804.287L801.87 226.817H806.444L808.861 221H814.104L811.687 226.817H816L814.643 230.044H810.329L808.73 233.939H813.248L811.891 237.165H807.373L804.956 243H799.713L802.13 237.165H797.556L795.139 243ZM804.659 230.318H800.736L799.36 233.665H803.283L804.659 230.318Z" fill="#FFA700"/>
<path d="M629.619 628.152C629.619 628.152 446.455 661.598 376.183 768H478.555L637.93 719.029L629.619 628.152Z" fill="#2F3134"/>
<path d="M433.795 567.92C436.888 556.056 433.089 539.671 443.636 531.106C449.432 526.399 459.533 525.938 466.735 527.2C472.239 528.164 504.186 542.587 511.26 548.17C511.26 548.17 532.452 549.66 570.949 500.727L616.708 548.901C616.708 548.901 563.141 621.812 510.655 610.963C486.528 605.975 472.021 592.934 464.472 579.531C464.331 581.906 463.864 584.143 462.504 584.837C455.734 588.292 453.44 570.515 451.428 567.678C451.492 571.454 453.747 586.911 450.824 588.351C445.412 591.019 441.822 570.518 441.612 567.264C439.677 571.063 440.291 581.009 436.089 583.431C433.121 585.142 430.386 582.111 430.283 579.02C430.158 575.334 432.866 571.485 433.795 567.92Z" fill="#F09D88"/>
<path d="M570.949 500.728L616.708 548.902C616.708 548.902 609.173 559.158 596.988 571.403C579.184 550.208 549.695 524.711 549.695 524.711L549.685 524.703C556.042 518.491 563.133 510.663 570.949 500.728Z" fill="#B66855"/>
<path d="M467.493 538.16C471.483 539.029 474.542 545.429 475.409 549.137C476.19 552.476 478.797 554.571 480.622 557.457C481.921 559.51 483.261 563.504 480.336 564.747C477.884 565.79 475.305 563.605 473.564 562.198C471.928 560.876 468.156 555.564 467.384 554.055C467.232 560.326 474.251 569.786 474.887 576.246C475.06 578.001 475.187 581.143 472.916 581.451C470.809 581.736 468.61 578.707 467.58 577.323C465.134 574.033 461.944 567.28 460.878 563.333C461.374 566.466 463.561 577.785 464.261 581.47" stroke="#2B4874" stroke-miterlimit="10" stroke-linecap="round" stroke-linejoin="round"/>
<path d="M511.26 548.171C511.26 548.171 521.041 551.288 523.494 554.869" stroke="#2B4874" stroke-miterlimit="10" stroke-linecap="round" stroke-linejoin="round"/>
<path d="M641.285 391.36C641.285 391.36 698.046 369.985 770.054 425.212C833.129 473.588 823.842 630.059 823.842 630.059H630.377C630.377 630.059 626.05 564.349 620.834 549.335L607.388 564.526C607.388 564.526 579.626 522.428 549.696 522.428C549.696 522.428 561.516 513.748 568.836 493.784C576.154 473.819 576.715 415.229 641.285 391.36Z" fill="#1144AA"/>
<path d="M568.834 493.783C575.246 476.297 576.473 429.18 620.065 401.713C620.368 401.617 620.662 401.532 620.968 401.433C687.689 379.825 720.972 425.052 720.972 425.052C762.117 426.411 750.171 536.065 750.171 536.065L753.309 630.059H630.376C630.376 630.059 626.049 564.349 620.833 549.335L607.386 564.526C607.386 564.526 579.625 522.428 549.694 522.428C549.694 522.428 561.514 513.748 568.834 493.783Z" fill="#497FEB"/>
<path d="M676.357 387.149C676.357 387.149 676.559 448.369 640.841 453.855C612.582 458.194 617.689 400.571 617.689 400.571" stroke="#2B4874" stroke-miterlimit="10" stroke-linecap="round" stroke-linejoin="round"/>
<path d="M612.583 482.844C618.098 508.675 620.834 539.788 620.834 539.788" stroke="#2B4874" stroke-miterlimit="10" stroke-linecap="round" stroke-linejoin="round"/>
<path d="M724.724 423.367C724.724 423.367 690.955 436.262 694.468 462.752C698.697 494.651 688.937 525.466 688.937 525.466" stroke="#2B4874" stroke-miterlimit="10" stroke-linecap="round" stroke-linejoin="round"/>
<path d="M703.251 425.052C703.251 425.052 691.973 435.628 691.539 444.308" stroke="#2B4874" stroke-miterlimit="10" stroke-linecap="round" stroke-linejoin="round"/>
<path d="M816.034 630.06C816.034 630.06 817.769 693.858 769.186 705.142C720.604 716.426 629.62 728.578 629.62 728.578L625.58 768H536.681C536.681 768 482.875 670.422 549.685 642.646C616.496 614.869 816.034 630.06 816.034 630.06Z" fill="#2B4874"/>
<path d="M516.224 694.076C516.657 673.015 524.804 652.99 549.685 642.646C591.703 625.177 686.207 624.705 750.567 626.758C749.487 631.142 742.644 651.669 708.13 658.054C669.416 665.215 590.685 648.94 562.706 676.933C545.676 693.972 528.449 696.827 516.224 694.076Z" fill="#798EBC"/>
<path d="M613.615 382.793L629.614 390.812L615.173 419.654L599.174 411.635L613.615 382.793Z" fill="#2B4874"/>
<path d="M591.286 429.34C584.695 422.463 584.924 411.542 591.798 404.948C598.671 398.354 609.586 398.584 616.177 405.461C622.768 412.338 622.539 423.258 615.665 429.853C608.791 436.447 597.876 436.217 591.286 429.34Z" fill="#798EBC"/>
<path d="M594.123 417.156C593.973 422.463 598.152 426.886 603.456 427.036C608.76 427.186 613.181 423.005 613.331 417.698C613.48 412.391 609.302 407.968 603.997 407.818C598.693 407.67 594.273 411.851 594.123 417.156Z" fill="#2B4874"/>
<path d="M564.985 339.388C548.718 336.459 552.948 311.721 561.081 319.207C569.214 326.694 591.988 311.721 604.676 310.093C617.364 308.466 620.942 319.207 620.942 319.207C620.942 319.207 630.377 315.301 636.985 327.345C643.593 339.388 633.956 349.153 634.932 358.918C635.908 368.683 641.438 367.707 640.788 375.519C640.47 379.326 638.145 381.115 635.844 381.957L635.845 381.958C635.845 381.958 635.787 381.98 635.702 382.014C635.688 382.02 635.672 382.026 635.658 382.031C633.623 382.807 614.441 389.805 600.285 383.493C588.733 378.343 577.188 357.034 572.52 347.576C562.614 350.917 552.538 344.221 551.648 340.365C550.67 336.133 564.985 339.388 564.985 339.388Z" fill="#2F3134"/>
<path d="M604.676 403.186L622.244 375.519L647.609 389.618C652.051 388.631 658.689 387.552 667.162 387.333C666.524 395.706 661.904 444.569 640.84 447.345C629.147 448.886 625.395 433.946 624.533 418.854L604.676 403.186Z" fill="#FDC6B8"/>
<path d="M614.698 411.094L604.675 403.186L622.243 375.519C622.243 375.519 627.463 394.888 614.698 411.094Z" fill="#F09D88"/>
<path d="M575.395 346.31C586.131 340.365 597.011 344.271 597.011 344.271C597.011 344.271 600.894 354.842 609.679 360.6C612.498 362.448 614.503 365.303 615.188 368.605L615.519 370.203L620.833 369.118C620.833 369.118 619.559 357.373 628.537 357.16C631.767 357.335 634.114 358.067 636.078 360.608C641.078 367.082 635.357 378.248 626.021 379.212C619.924 397.464 600.394 412.544 585.805 409.371C575.842 407.204 562.86 372.439 568.821 348.381C570.998 348.151 573.223 347.511 575.395 346.31Z" fill="#FDC6B8"/>
<path d="M625.822 369.985C625.822 369.985 623.876 360.148 631.028 360.708C632.894 360.854 634.052 362.074 634.613 363.665" stroke="#F09D88" stroke-miterlimit="10" stroke-linecap="round" stroke-linejoin="round"/>
<path d="M574.419 365.862C574.419 365.862 571.817 382.592 574.962 386.108C578.107 389.623 584.939 383.113 584.939 383.113" stroke="#2B4874" stroke-miterlimit="10" stroke-linecap="round" stroke-linejoin="round"/>
<path d="M587.373 390.288C587.373 390.288 592.446 389.101 593.133 384.291" stroke="#2B4874" stroke-miterlimit="10" stroke-linecap="round" stroke-linejoin="round"/>
<path d="M592.205 355.23C592.205 355.23 579.842 361.957 577.565 361.414" stroke="#2B4874" stroke-width="2" stroke-miterlimit="10" stroke-linecap="round" stroke-linejoin="round"/>
<path d="M572.034 362.932H565.636" stroke="#2B4874" stroke-width="2" stroke-miterlimit="10" stroke-linecap="round" stroke-linejoin="round"/>
<path d="M633.396 437.363L643.702 716.817C644.164 729.475 634.033 739.988 621.372 739.988C609.336 739.988 599.463 730.45 599.041 718.416L596.22 637.795" stroke="#FFFFF8" stroke-miterlimit="10" stroke-linecap="round" stroke-linejoin="round"/>
<path d="M643.62 377.902L660.475 383.908L646.485 423.209L629.63 417.202L643.62 377.902Z" fill="#798EBC"/>
<path d="M651.358 409.507L646.474 423.228L629.618 417.221L635.213 401.505C641.889 400.897 648.011 404.191 651.358 409.507Z" fill="#2B4874"/>
<path d="M617.673 424.045C618.569 433.53 626.981 440.495 636.461 439.599C645.941 438.703 652.902 430.288 652.006 420.802C651.111 411.317 642.699 404.352 633.219 405.248C623.738 406.144 616.778 414.559 617.673 424.045Z" fill="#8DB3FF"/>
<path d="M625.275 423.327C625.773 428.611 630.46 432.491 635.742 431.993C641.025 431.494 644.903 426.804 644.404 421.519C643.906 416.235 639.218 412.355 633.936 412.853C628.654 413.352 624.776 418.042 625.275 423.327Z" fill="#798EBC"/>
<path d="M688.937 525.466C688.937 525.466 774.5 531.478 790.116 562.542C805.732 593.603 688.562 534.631 688.562 534.631L688.937 525.466Z" fill="#07296C"/>
<path d="M772.656 546.298C772.656 546.298 725.374 520.258 688.937 525.466C688.937 525.466 690.672 547.166 678.526 546.298C666.381 545.429 592.638 503.765 560.973 532.409C560.973 532.409 554.9 540.221 543.838 538.919C543.838 538.919 535.705 537.617 537.332 544.453C538.958 551.288 549.694 550.312 549.694 550.312C549.694 550.312 525.62 560.402 528.222 574.399C530.825 588.395 539.284 564.634 554.574 562.681C554.574 562.681 540.26 576.352 549.694 585.466C559.129 594.58 556.201 570.818 568.238 566.261C568.238 566.261 562.708 585.36 572.142 587.53C581.577 589.697 573.444 572.446 580.926 567.889C580.926 567.889 579.625 578.63 587.108 578.956C594.59 579.281 586.782 566.912 593.289 561.053C593.289 561.053 602.393 565.33 609.065 562.542C609.065 562.542 668.441 635.593 723.097 620.294C777.753 604.996 772.656 546.298 772.656 546.298Z" fill="#FDC6B8"/>
<path d="M688.563 534.629C689.286 529.869 688.937 525.465 688.937 525.465C725.375 520.257 772.656 546.297 772.656 546.297C772.656 546.297 774.35 565.83 765.293 585.297C743.954 555.614 688.563 534.629 688.563 534.629Z" fill="#F09D88"/>
<path d="M609.065 562.542C609.065 562.542 616.713 559.969 617.689 553.351" stroke="#2B4874" stroke-miterlimit="10" stroke-linecap="round" stroke-linejoin="round"/>
<path d="M680.804 545.004C680.804 545.004 704.879 551.288 708.132 565.285" stroke="#2B4874" stroke-miterlimit="10" stroke-linecap="round" stroke-linejoin="round"/>
<path d="M378.283 605.535H616.738V616.184H378.283V605.535Z" fill="#798EBC"/>
<path d="M378.282 605.535H546.96V616.184H378.282V605.535Z" fill="#2F3134"/>
<path d="M279.485 536.888H528.04L515.027 367.076H266.472L279.485 536.888Z" fill="#798EBC"/>
<path d="M515.333 536.888H528.04L515.027 367.076H502.319L515.333 536.888Z" fill="#C9D3E8"/>
<path d="M356.264 516.114H421.981L418.565 478.155H352.848L356.264 516.114Z" fill="#2A447B"/>
<path d="M356.264 516.114H361.693V478.155H352.848L356.264 516.114Z" fill="#2F3134"/>
<path d="M348.68 605.535H392.213L405.227 524.793H361.693L348.68 605.535Z" fill="#C9D3E8"/>
<path d="M318.688 605.535H462.485V617.019H318.688V605.535Z" fill="#C9D3E8"/>
<path d="M318.688 605.535H405.715V617.019H318.688V605.535Z" fill="#798EBC"/>
<path d="M413.488 768L374.448 637.795H234.772V768" stroke="#C9D3E8" stroke-width="4" stroke-miterlimit="10"/>
<path d="M178.816 619.72H740.056V637.795H178.816V619.72Z" stroke="#C9D3E8" stroke-width="4" stroke-miterlimit="10"/>
<path d="M715.397 768L676.357 637.795H536.681V768" stroke="#C9D3E8" stroke-width="4" stroke-miterlimit="10"/>
<path d="M536.681 669.12H234.772" stroke="#C9D3E8" stroke-width="4" stroke-miterlimit="10"/>
<path d="M319.072 180.142L290.626 236.422V173.112C256.878 173.112 229.518 200.486 229.518 234.252C229.518 268.018 256.878 295.391 290.626 295.391C324.375 295.391 351.734 268.018 351.734 234.252C351.736 210.764 338.491 190.382 319.072 180.142Z" fill="#F2F5F9"/>
<path d="M290.627 196.06V234.252L318.554 179.87" stroke="#1144AA" stroke-width="4" stroke-miterlimit="10" stroke-linecap="round" stroke-linejoin="round"/>
<path d="M290.628 305.862C330.156 305.862 362.201 273.801 362.201 234.252C362.201 194.702 330.156 162.642 290.628 162.642C251.099 162.642 219.054 194.702 219.054 234.252C219.054 273.801 251.099 305.862 290.628 305.862Z" stroke="#FFA700" stroke-width="4" stroke-miterlimit="10"/>
<path d="M290.628 176.445C292.467 176.445 293.959 174.953 293.959 173.112C293.959 171.271 292.467 169.779 290.628 169.779C288.788 169.779 287.296 171.271 287.296 173.112C287.296 174.953 288.788 176.445 290.628 176.445Z" fill="#C9D3E8"/>
<path d="M290.628 298.724C292.467 298.724 293.959 297.232 293.959 295.391C293.959 293.55 292.467 292.058 290.628 292.058C288.788 292.058 287.296 293.55 287.296 295.391C287.296 297.232 288.788 298.724 290.628 298.724Z" fill="#C9D3E8"/>
<path d="M351.736 237.585C353.576 237.585 355.067 236.092 355.067 234.252C355.067 232.411 353.576 230.918 351.736 230.918C349.896 230.918 348.404 232.411 348.404 234.252C348.404 236.092 349.896 237.585 351.736 237.585Z" fill="#C9D3E8"/>
<path d="M229.518 237.585C231.358 237.585 232.85 236.092 232.85 234.252C232.85 232.411 231.358 230.918 229.518 230.918C227.678 230.918 226.187 232.411 226.187 234.252C226.187 236.092 227.678 237.585 229.518 237.585Z" fill="#C9D3E8"/>
<path d="M505.77 309.093L537.854 308.948L512.095 291.536L505.77 309.093Z" fill="#798EBC"/>
<path d="M518.479 283.009L540.258 304.937L535.878 274.092L518.479 283.009Z" fill="#798EBC"/>
<path d="M171.44 596.335H272.448V616.184H171.44V596.335Z" fill="#FFA700"/>
<path d="M171.44 596.335H229.587V616.184H171.44V596.335Z" fill="#5C6571"/>
<path d="M211.552 606.259C213.581 606.259 215.24 604.599 215.24 602.569V546.515C215.24 544.485 213.581 542.825 211.552 542.825C209.523 542.825 207.864 544.487 207.864 546.515V602.569C207.864 604.599 209.523 606.259 211.552 606.259Z" fill="#FFA700"/>
<path d="M186.32 605.358C188.292 604.877 189.511 602.871 189.031 600.898L175.767 546.438C175.286 544.466 173.281 543.246 171.31 543.726C169.338 544.207 168.119 546.213 168.599 548.186L181.863 602.646C182.344 604.618 184.349 605.838 186.32 605.358Z" fill="#FFA700"/>
</g>
</g>
<defs>
<clipPath id="clip0_153_893">
<rect width="1140" height="768" fill="white"/>
</clipPath>
<clipPath id="clip1_153_893">
<rect width="976" height="766" fill="white" transform="matrix(-1 0 0 1 977 2)"/>
</clipPath>
</defs>
</svg>
