<svg width="100" height="100" viewBox="0 0 100 100" fill="none" xmlns="http://www.w3.org/2000/svg">
<path d="M50.0267 18.4843C40.7321 18.4897 33.2003 26.011 33.2024 35.2859C33.2038 44.5615 40.7383 52.08 50.0335 52.0814C59.3281 52.0834 66.8654 44.5676 66.8708 35.2927C66.8708 26.0096 59.3295 18.4843 50.0267 18.4843Z" fill="#FFA700"/>
<path d="M30.1226 68.9094L22.0939 55.0426C21.3421 53.7403 19.95 52.9388 18.4442 52.9415C18.2085 52.936 17.9727 52.96 17.7424 53.0113V42.296C17.7424 39.9754 15.8569 38.0939 13.5314 38.0939C11.2058 38.0939 9.32031 39.9754 9.32031 42.296V69.6271C9.32031 71.8825 10.0891 74.0705 11.4999 75.8302L14.935 80.1151V82.9165H31.7792V74.879C31.7792 72.8491 31.2452 70.855 30.2308 69.0969L30.1226 68.9094Z" fill="#FFDAAA"/>
<path d="M13.7817 82.9158C12.8689 82.9158 12.1289 83.6558 12.1289 84.5686V89.6672C12.1289 90.58 12.8689 91.32 13.7817 91.32H32.935C33.8478 91.32 34.5878 90.58 34.5878 89.6672V84.5686C34.5878 83.6558 33.8478 82.9158 32.935 82.9158H13.7817Z" fill="#1144AA"/>
<path d="M27.8308 84.709C28.7436 84.709 29.4836 85.449 29.4836 86.3618V91.3203H13.7817C12.8689 91.3203 12.1289 90.5803 12.1289 89.6675V84.709H27.8308Z" fill="#497FEB"/>
<path d="M50.0278 66.1076L43.0094 68.909V50.5596C45.2095 51.5745 47.6043 52.0998 50.0278 52.1005V66.1076Z" fill="#C9D3E8"/>
<path d="M57.0466 68.9096L50.0282 66.1082L43.0098 68.9096L47.2208 77.3138H52.8355L57.0466 68.9096Z" fill="#FFDAAA"/>
<path d="M50.0266 85.7175C51.577 85.7175 52.834 84.4631 52.834 82.9161V77.3132H47.2192V82.9161C47.2192 84.4631 48.4762 85.7175 50.0266 85.7175Z" fill="#2F3134"/>
<path d="M57.0459 46.4985V68.9098L50.0275 66.1084V46.4985H57.0459Z" fill="#798EBC"/>
<path d="M50.0278 46.4985V52.1014C47.6043 52.1007 45.2095 51.5754 43.0094 50.5604V46.4985H50.0278Z" fill="#C9D3E8"/>
<path d="M57.0466 40.8944H43.0098V46.4972H57.0466V40.8944Z" fill="#2F3134"/>
<path d="M57.0466 35.2922C57.0466 32.198 54.5326 29.6893 51.4318 29.6893H48.6245C45.5238 29.6893 43.0098 32.198 43.0098 35.2922V40.895H57.0466V35.2922Z" fill="#C9D3E8"/>
<path d="M54.5673 35.2922C54.5673 32.198 52.0533 29.6893 48.9526 29.6893H48.6245C45.5238 29.6893 43.0098 32.198 43.0098 35.2922V40.895H54.5673V35.2922Z" fill="#E6E7E8"/>
<path d="M48.6174 10.0818C48.6174 9.30655 49.2459 8.6781 50.0211 8.6781C50.7963 8.6781 51.4248 9.30655 51.4248 10.0818V12.8772C51.4248 13.6525 50.7963 14.2809 50.0211 14.2809C49.2459 14.2809 48.6174 13.6525 48.6174 12.8772V10.0818Z" fill="#FF8800"/>
<path d="M31.1661 18.455C30.6171 17.9071 30.6172 17.0175 31.1664 16.4697C31.7138 15.9236 32.6 15.9237 33.1473 16.47L35.132 18.4508C35.681 18.9988 35.6809 19.8884 35.1318 20.4362C34.5843 20.9823 33.6981 20.9821 33.1508 20.4359L31.1661 18.455Z" fill="#FF8800"/>
<path d="M23.3535 35.291C23.3535 34.5174 23.9806 33.8903 24.7542 33.8903H27.5675C28.3411 33.8903 28.9682 34.5174 28.9682 35.291C28.9682 36.0646 28.3411 36.6917 27.5675 36.6917H24.7542C23.9806 36.6917 23.3535 36.0646 23.3535 35.291Z" fill="#FF8800"/>
<path d="M31.1665 54.111C30.6173 53.5632 30.6172 52.6736 31.1663 52.1256L33.1512 50.145C33.6986 49.5987 34.585 49.5987 35.1324 50.1451C35.6812 50.693 35.6812 51.5824 35.1322 52.1302L33.1473 54.1109C32.6 54.657 31.7139 54.6571 31.1665 54.111Z" fill="#FF8800"/>
<path d="M64.9134 52.1311C64.3645 51.5833 64.3645 50.694 64.9135 50.1462C65.4608 49.6001 66.3469 49.6001 66.8942 50.1462L68.8795 52.1273C69.4285 52.6752 69.4285 53.5648 68.8793 54.1126C68.3319 54.6587 67.4457 54.6585 66.8984 54.1123L64.9134 52.1311Z" fill="#FF8800"/>
<path d="M71.0791 35.291C71.0791 34.5174 71.7062 33.8903 72.4798 33.8903H75.2931C76.0667 33.8903 76.6938 34.5174 76.6938 35.291C76.6938 36.0646 76.0667 36.6917 75.2931 36.6917H72.4798C71.7062 36.6917 71.0791 36.0646 71.0791 35.291Z" fill="#FF8800"/>
<path d="M64.9133 20.4356C64.3645 19.8877 64.3645 18.9983 64.9135 18.4505L66.8984 16.4698C67.4457 15.9237 68.3318 15.9236 68.8792 16.4696C69.4284 17.0175 69.4285 17.9071 68.8794 18.455L66.8945 20.4357C66.3471 20.982 65.4607 20.9819 64.9133 20.4356Z" fill="#FF8800"/>
<path fill-rule="evenodd" clip-rule="evenodd" d="M17.7387 51.1805C17.0215 51.2608 16.3083 51.4835 15.6399 51.8601C12.9765 53.3607 12.0339 56.7363 13.5345 59.3997L21.259 73.1095C21.2706 73.1301 21.2823 73.1506 21.2941 73.1709L23.1684 72.1149L16.3818 60.0696C15.0317 57.6732 15.6593 54.7003 17.7387 53.0353L17.7387 51.1805Z" fill="#F09D88"/>
<path d="M70.1977 68.9094L78.2264 55.0426C78.9782 53.7403 80.3703 52.9388 81.8761 52.9415C82.1119 52.936 82.3476 52.96 82.5779 53.0113V42.296C82.5779 39.9754 84.4634 38.0939 86.789 38.0939C89.1145 38.0939 91 39.9754 91 42.296V69.6271C91 71.8825 90.2312 74.0705 88.8205 75.8302L85.3853 80.1151V82.9165H68.5411V74.879C68.5411 72.8491 69.0751 70.855 70.0895 69.0969L70.1977 68.9094Z" fill="#FFDAAA"/>
<path d="M86.5386 82.9158C87.4514 82.9158 88.1914 83.6558 88.1914 84.5686V89.6672C88.1914 90.58 87.4514 91.32 86.5386 91.32H67.3854C66.4725 91.32 65.7325 90.58 65.7325 89.6672V84.5686C65.7325 83.6558 66.4725 82.9158 67.3854 82.9158H86.5386Z" fill="#1144AA"/>
<path d="M81.4316 84.709C82.3445 84.709 83.0845 85.449 83.0845 86.3618V91.3203H67.3826C66.4697 91.3203 65.7297 90.5803 65.7297 89.6675V84.709H81.4316Z" fill="#497FEB"/>
<path fill-rule="evenodd" clip-rule="evenodd" d="M82.5816 51.1805C83.2988 51.2608 84.012 51.4835 84.6804 51.8601C87.3438 53.3607 88.2864 56.7363 86.7858 59.3997L79.0614 73.1095C79.0498 73.1301 79.0381 73.1506 79.0262 73.1709L77.1519 72.1149L83.9385 60.0696C85.2887 57.6732 84.661 54.7003 82.5816 53.0353L82.5816 51.1805Z" fill="#F09D88"/>
</svg>
