<svg width="100" height="100" viewBox="0 0 100 100" fill="none" xmlns="http://www.w3.org/2000/svg">
<path d="M92.7564 13.375L36.5467 14.7697C34.2125 14.7697 32.3204 16.6959 32.3204 19.0727L31.3906 60.794C32.3204 64.0482 34.2125 67.163 36.5467 67.163H91.7778C94.1119 67.163 96.0041 65.1552 96.0041 62.6789V19.0727C96.0041 16.6959 95.0808 15.2346 92.7564 13.375Z" fill="#C9D3E8"/>
<path d="M90.848 12.9102H35.6169C33.2828 12.9102 31.3906 14.8021 31.3906 17.1364V59.9656C31.3906 62.3978 33.2828 64.3698 35.6169 64.3698H90.848C93.1821 64.3698 95.0743 62.3978 95.0743 59.9656V17.1364C95.0743 14.8021 93.1821 12.9102 90.848 12.9102Z" fill="#F2F5F9"/>
<path d="M36.468 23.6753H90.0086V59.2987H36.468V23.6753Z" fill="#497FEB"/>
<path fill-rule="evenodd" clip-rule="evenodd" d="M90.0118 23.6763H36.4712V25.9281H85.8641V59.2997H90.0118V23.6763Z" fill="#1144AA"/>
<path d="M38.6516 20.0202C39.6048 20.0202 40.3776 19.2474 40.3776 18.2941C40.3776 17.3409 39.6048 16.5681 38.6516 16.5681C37.6983 16.5681 36.9255 17.3409 36.9255 18.2941C36.9255 19.2474 37.6983 20.0202 38.6516 20.0202Z" fill="#2F3134"/>
<path d="M45.6249 20.0202C46.5782 20.0202 47.351 19.2474 47.351 18.2941C47.351 17.3409 46.5782 16.5681 45.6249 16.5681C44.6717 16.5681 43.8989 17.3409 43.8989 18.2941C43.8989 19.2474 44.6717 20.0202 45.6249 20.0202Z" fill="#798EBC"/>
<path d="M52.591 20.0202C53.5443 20.0202 54.317 19.2474 54.317 18.2941C54.317 17.3409 53.5443 16.5681 52.591 16.5681C51.6378 16.5681 50.865 17.3409 50.865 18.2941C50.865 19.2474 51.6378 20.0202 52.591 20.0202Z" fill="#FFA700"/>
<path d="M55.2265 32.5347C54.5317 31.8398 53.4047 31.8396 52.7088 32.5347L45.0144 40.2291C44.6807 40.5631 44.4932 41.0158 44.4932 41.4879C44.4932 41.96 44.6807 42.4128 45.0144 42.7465L52.7088 50.4409C53.0565 50.7886 53.5122 50.9625 53.9677 50.9625C54.4232 50.9625 54.8789 50.7886 55.2265 50.4409C55.9217 49.7458 55.9217 48.6188 55.2265 47.9235L48.7907 41.4879L55.2265 35.0524C55.9217 34.357 55.9217 33.23 55.2265 32.5347Z" fill="#EDEDED"/>
<path d="M81.4566 40.2292L73.7622 32.5348C73.0668 31.8397 71.9398 31.8397 71.2445 32.5348C70.5494 33.2301 70.5494 34.3571 71.2445 35.0525L77.6803 41.488L71.2445 47.9236C70.5494 48.6189 70.5494 49.7459 71.2445 50.441C71.5922 50.7887 72.0476 50.9625 72.5033 50.9625C72.9588 50.9625 73.4145 50.7887 73.7622 50.441L81.4566 42.7466C81.7904 42.4128 81.9779 41.9601 81.9779 41.488C81.9779 41.0159 81.7904 40.5632 81.4566 40.2292Z" fill="#EDEDED"/>
<path d="M67.7348 28.3471C66.8055 28.029 65.7925 28.5242 65.4742 29.4545L57.6285 52.3668C57.3099 53.2971 57.8058 54.3094 58.7359 54.6277C58.9269 54.6933 59.1213 54.7241 59.3128 54.7241C60.0526 54.7241 60.7435 54.2592 60.9965 53.5201L68.8422 30.608C69.1608 29.6777 68.6649 28.6655 67.7348 28.3471Z" fill="#EDEDED"/>
<path fill-rule="evenodd" clip-rule="evenodd" d="M20.2279 75.4352L25.4533 70.2118C26.0632 69.5999 26.0632 68.6079 25.4533 67.996C24.8414 67.3861 23.8494 67.3861 23.2374 67.996L18.0141 73.2214C17.4022 73.8312 17.4022 74.8232 18.0141 75.4352C18.624 76.0471 19.6181 76.0471 20.2279 75.4352Z" fill="#2F3134"/>
<path fill-rule="evenodd" clip-rule="evenodd" d="M38.4385 32.4375C26.3356 32.4375 16.5093 42.2639 16.5093 54.3667C16.5093 66.4695 26.3356 76.2959 38.4385 76.2959C50.5413 76.2959 60.3677 66.4695 60.3677 54.3667C60.3677 42.2639 50.5413 32.4375 38.4385 32.4375ZM38.3863 38.1704C29.4705 38.1976 22.2422 45.4446 22.2422 54.3667C22.2422 63.3055 29.4997 70.563 38.4385 70.563C47.2979 70.563 54.5053 63.4328 54.6327 54.6048C54.6452 54.5275 54.6515 54.4461 54.6515 54.3667C54.6515 54.2852 54.6452 54.2059 54.6327 54.1286C54.5053 45.3152 47.3271 38.1976 38.4907 38.1704H38.3863Z" fill="#798EBC"/>
<path fill-rule="evenodd" clip-rule="evenodd" d="M20.0681 66.3427C24.2147 70.661 30.045 73.3506 36.4985 73.3506C49.0707 73.3506 59.2782 63.1431 59.2782 50.5709C59.2782 49.1886 59.1548 47.835 58.9185 46.5204C59.8539 48.9573 60.3665 51.603 60.3665 54.3674C60.3665 66.4703 50.5402 76.2966 38.4373 76.2966C30.7519 76.2966 23.9844 72.3342 20.0681 66.3427Z" fill="#2F3134"/>
<path fill-rule="evenodd" clip-rule="evenodd" d="M17.6172 71.0122C17.0053 70.4002 16.0132 70.4002 15.4013 71.0122C15.4013 71.0122 8.69515 77.7183 4.96301 81.4526C3.00191 83.4116 3.00191 86.5882 4.96301 88.5472L4.9651 88.5493C6.92411 90.5104 10.1007 90.5104 12.0597 88.5493C15.7939 84.8171 22.5001 78.111 22.5001 78.111C23.112 77.499 23.112 76.507 22.5001 75.8951L17.6172 71.0122Z" fill="#FFA700"/>
<path fill-rule="evenodd" clip-rule="evenodd" d="M3.49463 85.1294C3.65397 85.3522 3.83376 85.5649 4.034 85.7649L4.03609 85.767C5.9951 87.7281 9.1717 87.7281 11.1307 85.767C14.8649 82.0349 21.5711 75.3287 21.5711 75.3287C21.633 75.2668 21.6887 75.201 21.738 75.1321L22.5009 75.8949C23.1128 76.5068 23.1128 77.4989 22.5009 78.1108C22.5009 78.1108 15.7947 84.817 12.0605 88.5491C10.1015 90.5102 6.92488 90.5102 4.96587 88.5491L4.96378 88.547C4.01625 87.6005 3.52653 86.3697 3.49463 85.1294Z" fill="#FF8800"/>
</svg>
