<svg width="100" height="100" viewBox="0 0 100 100" fill="none" xmlns="http://www.w3.org/2000/svg">
<path d="M73.2031 43.0137H26.7969V18.9512H73.2031V43.0137Z" fill="#93635B"/>
<path d="M73.2031 18.9512H50V43.0137H73.2031V18.9512Z" fill="#798EBC"/>
<path d="M87.125 24.1074H12.875C9.08413 24.1074 6 21.0233 6 17.2324C6 13.4415 9.08413 10.3574 12.875 10.3574H87.125C90.9159 10.3574 94 13.4415 94 17.2324C94 21.0233 90.9159 24.1074 87.125 24.1074Z" fill="#497FEB"/>
<path d="M87.125 10.3574H50V24.1074H87.125C90.9159 24.1074 94 21.0233 94 17.2324C94 13.4415 90.9159 10.3574 87.125 10.3574Z" fill="#1144AA"/>
<path d="M84.2031 10.3574H79.0469V48.8574H84.2031V10.3574Z" fill="#C9D3E8"/>
<path d="M90.8435 72.748H72.4141L74.9645 56.9355H88.2933L90.8435 72.748Z" fill="#FFA700"/>
<path fill-rule="evenodd" clip-rule="evenodd" d="M80.0054 72.748H90.8437L88.2934 56.9355H81.336L80.0054 72.748Z" fill="#FF8800"/>
<path d="M81.625 61.748C77.3603 61.748 73.8906 58.2784 73.8906 54.0137C73.8906 49.7489 77.3603 46.2793 81.625 46.2793C85.8897 46.2793 89.3594 49.7489 89.3594 54.0137C89.3594 58.2784 85.8897 61.748 81.625 61.748Z" fill="#FFA700"/>
<path fill-rule="evenodd" clip-rule="evenodd" d="M74.6123 57.2749C75.8069 58.0311 77.2219 58.4691 78.7373 58.4691C83.002 58.4691 86.4717 54.9995 86.4717 50.7348C86.4717 49.5702 86.2129 48.4648 85.7499 47.4733C87.9173 48.8452 89.3593 51.2641 89.3593 54.0134C89.3593 58.2782 85.8897 61.7478 81.6249 61.7478C78.5248 61.7478 75.8448 59.9144 74.6123 57.2749Z" fill="#FF8800"/>
<path d="M56.4621 17.3652H15.1235C13.4889 17.3652 12.1641 18.6901 12.1641 20.3246V80.3565H59.4215V20.3246C59.4215 18.6901 58.0967 17.3652 56.4621 17.3652Z" fill="#F2F5F9"/>
<path fill-rule="evenodd" clip-rule="evenodd" d="M12.1641 51H59.4215V84.3565C59.4215 86.5656 57.6307 88.3565 55.4215 88.3565H16.1641C13.9549 88.3565 12.1641 86.5656 12.1641 84.3565V51Z" fill="#2F3134"/>
<path d="M31.5717 57.7083H22.3587C21.9275 57.7083 21.5781 57.3583 21.5781 56.9271C21.5781 56.4959 21.9275 56.1465 22.3587 56.1465H31.5717C32.0029 56.1465 32.3529 56.4959 32.3529 56.9271C32.3523 57.3583 32.0029 57.7083 31.5717 57.7083Z" fill="#F7C9A9"/>
<path d="M39.3969 57.7083H33.9369C33.5056 57.7083 33.1562 57.3583 33.1562 56.9271C33.1562 56.4959 33.5056 56.1465 33.9369 56.1465H39.3969C39.8282 56.1465 40.1782 56.4959 40.1782 56.9271C40.1776 57.3583 39.8282 57.7083 39.3969 57.7083Z" fill="#2F3134"/>
<path d="M19.6574 56.9283C19.6574 57.3602 19.3074 57.7102 18.8756 57.7102C18.4437 57.7102 18.0938 57.3602 18.0938 56.9283C18.0938 56.4965 18.4437 56.1465 18.8756 56.1465C19.3074 56.1465 19.6574 56.4965 19.6574 56.9283Z" fill="#F2F5F9"/>
<path d="M25.9492 67.0927H22.3656C21.9343 67.0927 21.585 66.7427 21.585 66.3115C21.585 65.8803 21.9343 65.5309 22.3656 65.5309H25.9492C26.3805 65.5309 26.7305 65.8803 26.7305 66.3115C26.7298 66.7427 26.3805 67.0927 25.9492 67.0927Z" fill="#F7C9A9"/>
<path d="M43.7766 67.0927H39.2547C38.8235 67.0927 38.4741 66.7427 38.4741 66.3115C38.4741 65.8803 38.8235 65.5309 39.2547 65.5309H43.7766C44.2078 65.5309 44.5578 65.8803 44.5578 66.3115C44.5572 66.7427 44.2078 67.0927 43.7766 67.0927Z" fill="#C9D3E8"/>
<path d="M36.8915 67.0911H28.3041C27.8728 67.0911 27.5234 66.7412 27.5234 66.3099C27.5234 65.8787 27.8728 65.5293 28.3041 65.5293H36.8915C37.3227 65.5293 37.6727 65.8787 37.6727 66.3099C37.6721 66.7412 37.3227 67.0911 36.8915 67.0911Z" fill="#497FEB"/>
<path d="M19.6574 59.8033C19.6574 60.2352 19.3074 60.5852 18.8756 60.5852C18.4437 60.5852 18.0938 60.2352 18.0938 59.8033C18.0938 59.3715 18.4437 59.0215 18.8756 59.0215C19.3074 59.0215 19.6574 59.3715 19.6574 59.8033Z" fill="#F2F5F9"/>
<path d="M31.5717 63.9642H22.3587C21.9275 63.9642 21.5781 63.6142 21.5781 63.183C21.5781 62.7517 21.9275 62.4023 22.3587 62.4023H31.5717C32.0029 62.4023 32.3529 62.7517 32.3529 63.183C32.3523 63.6142 32.0029 63.9642 31.5717 63.9642Z" fill="#F2F5F9"/>
<path d="M51.2809 63.9642H33.9369C33.5056 63.9642 33.1562 63.6142 33.1562 63.183C33.1562 62.7517 33.5056 62.4023 33.9369 62.4023H51.2809C51.7122 62.4023 52.0622 62.7517 52.0622 63.183C52.0616 63.6142 51.7122 63.9642 51.2809 63.9642Z" fill="#FFA700"/>
<path d="M19.6574 63.1842C19.6574 63.616 19.3074 63.966 18.8756 63.966C18.4437 63.966 18.0938 63.616 18.0938 63.1842C18.0938 62.7523 18.4437 62.4023 18.8756 62.4023C19.3074 62.4023 19.6574 62.7523 19.6574 63.1842Z" fill="#F2F5F9"/>
<path d="M27.5061 60.8372H22.3587C21.9275 60.8372 21.5781 60.4872 21.5781 60.056C21.5781 59.6248 21.9275 59.2754 22.3587 59.2754H27.5061C27.9373 59.2754 28.2873 59.6248 28.2873 60.056C28.2867 60.4872 27.9373 60.8372 27.5061 60.8372Z" fill="#798EBC"/>
<path d="M45.6548 60.8372H29.8744C29.4431 60.8372 29.0938 60.4872 29.0938 60.056C29.0938 59.6248 29.4431 59.2754 29.8744 59.2754H45.6548C46.086 59.2754 46.436 59.6248 46.436 60.056C46.4354 60.4872 46.086 60.8372 45.6548 60.8372Z" fill="#F2F5F9"/>
<path d="M19.6574 66.3111C19.6574 66.743 19.3074 67.093 18.8756 67.093C18.4437 67.093 18.0938 66.743 18.0938 66.3111C18.0938 65.8793 18.4437 65.5293 18.8756 65.5293C19.3074 65.5293 19.6574 65.8793 19.6574 66.3111Z" fill="#F2F5F9"/>
<path d="M31.5717 73.3451H22.3587C21.9275 73.3451 21.5781 72.9951 21.5781 72.5638C21.5781 72.1326 21.9275 71.7832 22.3587 71.7832H31.5717C32.0029 71.7832 32.3529 72.1326 32.3529 72.5638C32.3523 72.9951 32.0029 73.3451 31.5717 73.3451Z" fill="#FFA700"/>
<path d="M42.5243 73.3451H33.9369C33.5056 73.3451 33.1562 72.9951 33.1562 72.5638C33.1562 72.1326 33.5056 71.7832 33.9369 71.7832H42.5243C42.9555 71.7832 43.3055 72.1326 43.3055 72.5638C43.3049 72.9951 42.9555 73.3451 42.5243 73.3451Z" fill="#F2F5F9"/>
<path d="M19.6574 72.565C19.6574 72.9969 19.3074 73.3469 18.8756 73.3469C18.4437 73.3469 18.0938 72.9969 18.0938 72.565C18.0938 72.1332 18.4437 71.7832 18.8756 71.7832C19.3074 71.7832 19.6574 72.1332 19.6574 72.565Z" fill="#F2F5F9"/>
<path d="M25.9424 82.7279H22.3587C21.9275 82.7279 21.5781 82.3779 21.5781 81.9466C21.5781 81.5154 21.9275 81.166 22.3587 81.166H25.9424C26.3736 81.166 26.7236 81.5154 26.7236 81.9466C26.723 82.3779 26.3736 82.7279 25.9424 82.7279Z" fill="#C9D3E8"/>
<path d="M43.7634 82.7279H39.2416C38.8103 82.7279 38.4609 82.3779 38.4609 81.9466C38.4609 81.5154 38.8103 81.166 39.2416 81.166H43.7634C44.1946 81.166 44.5446 81.5154 44.5446 81.9466C44.544 82.3779 44.1946 82.7279 43.7634 82.7279Z" fill="#798EBC"/>
<path d="M36.8915 82.7279H28.3041C27.8728 82.7279 27.5234 82.3779 27.5234 81.9466C27.5234 81.5154 27.8728 81.166 28.3041 81.166H36.8915C37.3227 81.166 37.6727 81.5154 37.6727 81.9466C37.6721 82.3779 37.3227 82.7279 36.8915 82.7279Z" fill="#497FEB"/>
<path d="M19.6574 81.9479C19.6574 82.3797 19.3074 82.7297 18.8756 82.7297C18.4437 82.7297 18.0938 82.3797 18.0938 81.9479C18.0938 81.516 18.4437 81.166 18.8756 81.166C19.3074 81.166 19.6574 81.516 19.6574 81.9479Z" fill="#F2F5F9"/>
<path d="M31.5717 79.6009H22.3587C21.9275 79.6009 21.5781 79.2509 21.5781 78.8197C21.5781 78.3884 21.9275 78.0391 22.3587 78.0391H31.5717C32.0029 78.0391 32.3529 78.3884 32.3529 78.8197C32.3523 79.2509 32.0029 79.6009 31.5717 79.6009Z" fill="#F2F5F9"/>
<path d="M51.2809 79.6009H33.9369C33.5056 79.6009 33.1562 79.2509 33.1562 78.8197C33.1562 78.3884 33.5056 78.0391 33.9369 78.0391H51.2809C51.7122 78.0391 52.0622 78.3884 52.0622 78.8197C52.0616 79.2509 51.7122 79.6009 51.2809 79.6009Z" fill="#2F3134"/>
<path d="M19.6574 78.8209C19.6574 79.2527 19.3074 79.6027 18.8756 79.6027C18.4437 79.6027 18.0938 79.2527 18.0938 78.8209C18.0938 78.3891 18.4437 78.0391 18.8756 78.0391C19.3074 78.0391 19.6574 78.3891 19.6574 78.8209Z" fill="#F2F5F9"/>
<path d="M27.5061 76.472H22.3587C21.9275 76.472 21.5781 76.122 21.5781 75.6908C21.5781 75.2595 21.9275 74.9102 22.3587 74.9102H27.5061C27.9373 74.9102 28.2873 75.2595 28.2873 75.6908C28.2867 76.122 27.9373 76.472 27.5061 76.472Z" fill="#798EBC"/>
<path d="M45.6548 76.472H29.8744C29.4431 76.472 29.0938 76.122 29.0938 75.6908C29.0938 75.2595 29.4431 74.9102 29.8744 74.9102H45.6548C46.086 74.9102 46.436 75.2595 46.436 75.6908C46.4354 76.122 46.086 76.472 45.6548 76.472Z" fill="#F7C9A9"/>
<path d="M19.6574 75.692C19.6574 76.1238 19.3074 76.4738 18.8756 76.4738C18.4437 76.4738 18.0938 76.1238 18.0938 75.692C18.0938 75.2602 18.4437 74.9102 18.8756 74.9102C19.3074 74.9102 19.6574 75.2602 19.6574 75.692Z" fill="#F2F5F9"/>
<path d="M12.1641 20.3246V23.5252H59.4215V20.3246C59.4215 18.6901 58.0967 17.3652 56.4621 17.3652H15.1235C13.4889 17.3652 12.1641 18.6901 12.1641 20.3246Z" fill="#FFA700"/>
<path d="M30.4988 45.4118L31.7167 44.178C32.3734 44.5457 33.0672 44.8181 33.7813 44.9946L33.7917 46.6945C33.7941 47.0555 34.0879 47.3456 34.4489 47.3438L37.4126 47.3255C37.773 47.323 38.0637 47.0286 38.0613 46.6676L38.0503 44.9268C38.7564 44.7277 39.4411 44.437 40.0843 44.0491L41.2974 45.2463C41.5539 45.5004 41.9674 45.4973 42.2209 45.2408L44.3026 43.1323C44.5567 42.8751 44.5536 42.4616 44.2971 42.2081L43.0553 40.9822C43.4218 40.3286 43.6936 39.6372 43.8701 38.9262L45.5798 38.9152C45.9408 38.9134 46.2315 38.6189 46.2291 38.258L46.2107 35.2949C46.2089 34.9345 45.9145 34.6438 45.5535 34.6462L43.8072 34.6572C43.6099 33.9517 43.3198 33.267 42.9337 32.6244L44.1321 31.4101C44.3856 31.1536 44.3826 30.7401 44.126 30.4866L42.0175 28.4049C41.761 28.1508 41.3474 28.1539 41.094 28.4104L39.8711 29.6485C39.2169 29.2802 38.5236 29.0072 37.8114 28.8294L37.8011 27.1277C37.7986 26.7667 37.5048 26.476 37.1438 26.4784L34.1808 26.4967C33.8198 26.4992 33.5296 26.7936 33.5315 27.1546L33.5425 28.8887C32.8339 29.0866 32.1461 29.3773 31.5005 29.7652L30.296 28.5759C30.0394 28.3218 29.6259 28.3249 29.3718 28.5814L27.2902 30.69C27.0367 30.9471 27.0391 31.3606 27.2963 31.6141L28.5265 32.8284C28.1563 33.4857 27.8827 34.1814 27.7055 34.896L26.0136 34.907C25.6526 34.9089 25.3618 35.2033 25.3643 35.5643L25.3826 38.5273C25.385 38.8883 25.6795 39.1791 26.0404 39.1766L27.7703 39.1656C27.9688 39.8748 28.2608 40.5626 28.6505 41.2082L27.4618 42.4121C27.2083 42.6686 27.2114 43.0822 27.4679 43.3363L29.5764 45.4179C29.8318 45.6708 30.2453 45.6684 30.4988 45.4118ZM32.5652 33.7276C34.3225 31.9482 37.1902 31.9299 38.9702 33.6872C40.7501 35.4452 40.7678 38.3123 39.0105 40.0922C37.2525 41.8721 34.3854 41.8905 32.6055 40.1325C30.8256 38.3752 30.8078 35.5075 32.5652 33.7276Z" fill="#798EBC"/>
</svg>
