<svg width="100" height="100" viewBox="0 0 100 100" fill="none" xmlns="http://www.w3.org/2000/svg">
<path d="M89.4525 69.1831H10.5475C9.14075 69.1831 8 68.0424 8 66.6357V10.5475C8 9.14075 9.14075 8 10.5475 8H89.4525C90.8593 8 92 9.14075 92 10.5475V66.6357C92 68.0424 90.8593 69.1831 89.4525 69.1831Z" fill="#C9D3E8"/>
<path d="M89.4526 8H84.3821C85.7894 8 86.9295 9.14075 86.9295 10.5475V66.6357C86.9295 68.0424 85.7894 69.1831 84.3821 69.1831H89.4526C90.8593 69.1831 92.0001 68.0424 92.0001 66.6357V10.5475C92.0001 9.14075 90.8593 8 89.4526 8Z" fill="#798EBC"/>
<path d="M13.0703 63.4365V13.7467C13.0703 13.373 13.3728 13.0706 13.7464 13.0706H86.2531C86.6267 13.0706 86.9292 13.373 86.9292 13.7467V63.4365C86.9292 63.8101 86.6267 64.1126 86.2531 64.1126H13.7464C13.3728 64.1126 13.0703 63.8101 13.0703 63.4365Z" fill="white"/>
<path d="M59.9671 29.5574L59.968 29.5578C60.0328 29.5824 60.0661 29.6417 60.0661 29.6889C60.0661 29.7338 60.0467 29.7736 60.0014 29.8037C59.9556 29.8342 59.9033 29.8406 59.8513 29.8198C59.8513 29.8197 59.8512 29.8197 59.8512 29.8197L53.463 27.259C53.463 27.259 53.463 27.259 53.4629 27.259C53.3991 27.2333 53.368 27.1779 53.368 27.128V26.672C53.368 26.622 53.3991 26.5667 53.4629 26.541C53.463 26.541 53.463 26.541 53.463 26.5409L59.8488 23.9812C59.849 23.9811 59.8493 23.981 59.8496 23.9809C59.9699 23.9337 60.0661 24.0246 60.0661 24.1111V24.1502C60.0537 24.1912 60.0219 24.2307 59.9711 24.2514L57.5279 25.1964C57.5276 25.1965 57.5273 25.1966 57.527 25.1967C55.9581 25.8006 55.9432 28.0274 57.5311 28.6283C57.5316 28.6285 57.5321 28.6286 57.5326 28.6288L59.9671 29.5574Z" fill="#C9D3E8" stroke="#C9D3E8" stroke-width="1.696"/>
<path d="M63.5609 34.032C63.5464 34.032 63.5161 34.0287 63.4826 33.9746C63.4478 33.9186 63.4348 33.8401 63.4652 33.7598C63.4654 33.7593 63.4656 33.7588 63.4658 33.7583L68.2609 21.5428C68.2611 21.5424 68.2612 21.542 68.2614 21.5416C68.2787 21.4987 68.3021 21.4745 68.3191 21.4624C68.3355 21.4507 68.3485 21.448 68.3593 21.448C68.3738 21.448 68.4041 21.4513 68.4376 21.5053C68.4724 21.5614 68.4854 21.6399 68.455 21.7201L63.6593 33.9371C63.6591 33.9375 63.659 33.938 63.6588 33.9384C63.6415 33.9812 63.6181 34.0055 63.6011 34.0176C63.5847 34.0292 63.5717 34.032 63.5609 34.032Z" fill="#C9D3E8" stroke="#C9D3E8" stroke-width="1.696"/>
<path d="M74.3954 25.199L74.3958 25.1969L71.945 24.2497L71.945 24.2497L71.9405 24.2479C71.8832 24.2262 71.848 24.1722 71.848 24.1169C71.848 24.022 71.9523 23.9356 72.064 23.9803C72.064 23.9803 72.064 23.9803 72.0641 23.9803L78.4567 26.541C78.4567 26.541 78.4568 26.541 78.4568 26.541C78.521 26.5668 78.552 26.6224 78.552 26.6719V27.128C78.552 27.1776 78.521 27.2332 78.4567 27.259L72.0665 29.8187C72.0662 29.8188 72.066 29.8189 72.0657 29.819C71.9441 29.8667 71.848 29.7746 71.848 29.6889C71.848 29.6359 71.8806 29.5825 71.9424 29.5594L71.9424 29.5594L71.9473 29.5575L74.3862 28.6279L74.3882 28.6271C75.9547 28.0254 75.9806 25.8121 74.3954 25.199Z" fill="#C9D3E8" stroke="#C9D3E8" stroke-width="1.696"/>
<path d="M63.4399 39.08H80.2399H63.4399Z" fill="#C9D3E8"/>
<path d="M63.4399 39.08H80.2399" stroke="#C9D3E8" stroke-width="3" stroke-linecap="round" stroke-linejoin="round"/>
<path d="M53.3601 44.96H70.1601H53.3601Z" fill="#C9D3E8"/>
<path d="M53.3601 44.96H70.1601" stroke="#C9D3E8" stroke-width="3" stroke-linecap="round" stroke-linejoin="round"/>
<path d="M51.6799 39.08H58.3999H51.6799Z" fill="#C9D3E8"/>
<path d="M51.6799 39.08H58.3999" stroke="#C9D3E8" stroke-width="3" stroke-linecap="round" stroke-linejoin="round"/>
<path d="M31.1172 60.1251H41.3333V76.4711H31.1172V60.1251Z" fill="#F09D88"/>
<path d="M58.1974 92H16.82C15.14 92 14.2537 91.16 14.2537 89.48V81.8589C14.2537 76.2583 18.7936 71.7184 24.3948 71.7184H48.0563C53.6569 71.7184 58.1974 76.2583 58.1974 81.8589V92Z" fill="#497FEB"/>
<path d="M48.0562 71.7184H42.9856C48.5868 71.7184 53.1267 76.2583 53.1267 81.8589V92H58.1973V81.8589C58.1973 76.2583 53.6567 71.7184 48.0562 71.7184Z" fill="#1144AA"/>
<path d="M36.2201 71.7209L30.9977 67.015C30.8733 66.9029 30.6856 66.8984 30.5567 67.0048L25.1164 71.4857C24.9632 71.612 24.9517 71.8427 25.0914 71.9843L29.8268 76.7755C29.9518 76.9017 30.1524 76.91 30.2869 76.7947L36.2201 71.7209Z" fill="#F2F5F9"/>
<path d="M36.231 71.7209L41.4528 67.015C41.5771 66.9029 41.7649 66.8984 41.8943 67.0048L47.334 71.4857C47.4878 71.612 47.4994 71.8427 47.3596 71.9843L42.6236 76.7755C42.4993 76.9017 42.2987 76.91 42.1635 76.7947L36.231 71.7209Z" fill="#F2F5F9"/>
<path d="M17.8359 45.4133V31.7102C17.8359 22.1254 25.6058 14.3555 35.1907 14.3555H37.26C46.8449 14.3555 54.6148 22.1254 54.6148 31.7102V45.4133C54.6148 55.5698 46.3815 63.803 36.225 63.803C26.0692 63.803 17.8359 55.5698 17.8359 45.4133Z" fill="#FDC6B8"/>
<path d="M37.2599 14.3555H35.1905C34.5029 14.3555 29.1478 22.1721 28.4819 22.2497C27.7936 28.1662 31.5478 31.5186 38.0046 34.0122C41.5537 35.383 43.8871 38.8059 43.8871 42.6107V45.4133C43.8871 54.5251 41.8575 62.088 33.1603 63.5473C34.1568 63.7146 35.1809 63.803 36.2249 63.803C46.3814 63.803 54.6147 55.5691 54.6147 45.4133V31.7102C54.6147 22.1254 46.8448 14.3555 37.2599 14.3555Z" fill="#F09D88"/>
<path d="M32.6666 11.4434C32.6666 11.4434 35.6896 8 41.981 8C52.2619 8 64.4506 25.0708 64.4506 38.2048C64.4506 58.0999 53.3289 60.3782 50.4078 58.4723C48.673 57.3405 49.3946 52.4071 50.0079 46.0035C50.7078 38.6983 46.1377 31.9019 39.0971 29.8299C35.307 28.7142 31.5067 26.8768 29.4097 23.8506C29.0105 23.2745 28.1242 23.3745 27.8505 24.0198C27.1872 25.5842 26.0279 27.8862 24.3597 29.6562C21.3188 32.8843 19.7922 37.2499 20.2069 41.6655C20.8682 48.708 21.2829 57.2944 19.5199 58.3428C16.4764 60.1539 8.58086 53.3165 8.01946 42.1782C7.45742 31.0399 19.4686 8.38132 32.6666 11.4434Z" fill="#FFA700"/>
<path d="M41.9806 8C40.9386 8 39.9882 8.09613 39.1243 8.25378C48.861 10.4071 59.3802 26.0033 59.3802 38.2048C59.3802 51.3651 54.5141 56.815 50.3734 58.4467C50.385 58.455 50.3959 58.4646 50.4074 58.4723C53.3285 60.3782 64.4501 58.0999 64.4501 38.2048C64.4501 25.0708 52.2614 8 41.9806 8Z" fill="#FF8800"/>
<path d="M66.0814 88.2932L61.562 85.9944L80.0287 49.6892C80.6638 48.4408 82.1897 47.9441 83.4381 48.5785C84.6859 49.2136 85.1832 50.7395 84.5481 51.988L66.0814 88.2932Z" fill="#1144AA"/>
<path d="M70.1123 92H53.7747L59.2349 80.1228C60.9793 76.3013 65.4904 74.6177 69.3119 76.3622C73.1334 78.1066 74.817 82.6177 73.0725 86.4392L70.7096 91.6162C70.6026 91.8501 70.3693 92 70.1123 92Z" fill="#FDC6B8"/>
<path d="M69.3119 76.3621C68.5031 75.993 67.6629 75.7789 66.8253 75.7046C69.0786 77.881 69.8348 81.3212 68.4602 84.3339L64.9719 92H70.1123C70.3693 92 70.6026 91.85 70.7096 91.6161L73.0725 86.4391C74.817 82.6183 73.1334 78.1066 69.3119 76.3621Z" fill="#F09D88"/>
</svg>
