<svg width="100" height="100" viewBox="0 0 100 100" fill="none" xmlns="http://www.w3.org/2000/svg">
<g clip-path="url(#clip0_153_847)">
<path d="M11.111 31.7098L6.34912 36.4811V28.5288C6.34912 20.6224 12.7456 14.2147 20.6348 14.2147H33.3332V20.5766C37.7138 20.5766 41.2698 24.1395 41.2698 28.5288V36.4811L36.5079 31.7098C36.5079 31.7098 30.619 34.8907 23.8094 34.8907C16.9999 34.8907 11.111 31.7098 11.111 31.7098Z" fill="#2F3134"/>
<path d="M33.3331 20.5766V14.2147H26.9839V23.7575C31.3645 23.7575 34.9204 25.73 34.9204 30.1193V32.4522C35.9264 32.0227 36.5077 31.7098 36.5077 31.7098L41.2696 36.4811V28.5288C41.2696 24.1395 37.7137 20.5766 33.3331 20.5766Z" fill="black"/>
<path d="M41.2698 36.4811V42.8429C41.2698 49.6342 37.3968 55.5347 31.7459 58.4291C29.365 59.6553 26.6663 60.3379 23.8094 60.3379C20.9526 60.3379 18.2539 59.6538 15.8729 58.4291C10.222 55.5363 6.34912 49.6342 6.34912 42.8429V36.4811L11.111 31.7097C11.111 31.7097 16.9999 34.8906 23.8094 34.8906C30.619 34.8906 36.5079 31.7097 36.5079 31.7097L41.2698 36.4811Z" fill="#FDC6B8"/>
<path d="M36.5078 31.7097C36.5078 31.7097 35.9265 32.0227 34.9205 32.4521V42.8429C34.9205 49.6342 31.0476 55.5347 25.3967 58.4291C23.9218 59.1894 22.3158 59.7112 20.6348 60.018C21.6664 60.209 22.7204 60.3379 23.8094 60.3379C26.6662 60.3379 29.3649 59.6538 31.7459 58.4291C37.3968 55.5363 41.2697 49.6342 41.2697 42.8429V36.4811L36.5078 31.7097Z" fill="#F09D88"/>
<path d="M23.8096 65.1093L19.0476 66.6998L15.873 63.5189V58.4291C18.254 59.6553 20.9527 60.3379 23.8096 60.3379C26.6664 60.3379 29.3651 59.6538 31.7461 58.4291V63.5189L28.5715 66.6998L23.8096 65.1093Z" fill="#F2F5F9"/>
<path d="M19.0476 66.6998L23.8095 65.1094L28.5714 66.6998L31.746 63.5189H38.0952C43.3648 63.5189 47.619 67.7816 47.619 73.0617V82.6044C47.619 84.368 46.2061 85.7853 44.4444 85.7853H3.1746C1.41292 85.7853 0 84.368 0 82.6044V73.0617C0 67.7816 4.25425 63.5189 9.52381 63.5189H15.873L19.0476 66.6998Z" fill="#497FEB"/>
<path d="M38.0953 63.5189H31.7461C37.0157 63.5189 41.2699 67.7816 41.2699 73.0617V82.6044C41.2699 84.368 39.857 85.7853 38.0953 85.7853H44.4445C46.2062 85.7853 47.6191 84.368 47.6191 82.6044V73.0617C47.6191 67.7816 43.3649 63.5189 38.0953 63.5189Z" fill="#1144AA"/>
<path d="M23.8567 71.4712H23.8412C22.9646 71.4712 22.2632 72.1818 22.2632 73.0616C22.2632 73.9415 22.9809 74.6521 23.8582 74.6521C24.7348 74.6521 25.4455 73.9415 25.4455 73.0616C25.4455 72.1818 24.7333 71.4712 23.8567 71.4712Z" fill="#F5F7FA"/>
<path d="M23.8567 77.833H23.8412C22.9646 77.833 22.2632 78.5436 22.2632 79.4235C22.2632 80.3033 22.9809 81.0139 23.8582 81.0139C24.7348 81.0139 25.4455 80.3033 25.4455 79.4235C25.4455 78.5436 24.7333 77.833 23.8567 77.833Z" fill="#F5F7FA"/>
<path d="M97.125 40.5625H72.125C70.3984 40.5625 69 39.1641 69 37.4375V18.6875C69 16.9609 70.3984 15.5625 72.125 15.5625H97.125C98.8516 15.5625 100.25 16.9609 100.25 18.6875V37.4375C100.25 39.1641 98.8516 40.5625 97.125 40.5625Z" fill="#C9D3E8"/>
<path d="M97.125 39H72.125C70.3984 39 69 37.6016 69 35.875V17.125C69 15.3984 70.3984 14 72.125 14H97.125C98.8516 14 100.25 15.3984 100.25 17.125V35.875C100.25 37.6016 98.8516 39 97.125 39Z" fill="#F2F5F9"/>
<path d="M97.125 14H72.125C70.3984 14 69 15.3984 69 17.125H100.25C100.25 15.3984 98.8516 14 97.125 14Z" fill="#497FEB"/>
<path d="M76.8129 32.7504C76.4129 32.7504 76.0129 32.5973 75.7082 32.2926L72.5832 29.1676C71.9723 28.5566 71.9723 27.5691 72.5832 26.9582L75.7082 23.8332C76.3191 23.2223 77.3066 23.2223 77.9176 23.8332C78.5285 24.4441 78.5285 25.4316 77.9176 26.0426L75.8973 28.0629L77.9176 30.0832C78.5285 30.6941 78.5285 31.6816 77.9176 32.2926C77.6129 32.5973 77.2129 32.7504 76.8129 32.7504Z" fill="#FFA700"/>
<path d="M92.4379 32.7504C92.0379 32.7504 91.6379 32.5973 91.3332 32.2926C90.7223 31.6816 90.7223 30.6941 91.3332 30.0832L93.3535 28.0629L91.3332 26.0426C90.7223 25.4316 90.7223 24.4441 91.3332 23.8332C91.9441 23.2223 92.9316 23.2223 93.5426 23.8332L96.6676 26.9582C97.2785 27.5691 97.2785 28.5566 96.6676 29.1676L93.5426 32.2926C93.2379 32.5973 92.8379 32.7504 92.4379 32.7504Z" fill="#FFA700"/>
<path d="M83.0607 32.7503C82.8263 32.7503 82.5873 32.6972 82.3638 32.5863C81.5919 32.2003 81.2794 31.2613 81.6654 30.4894L84.7904 24.2394C85.1763 23.4675 86.1138 23.1582 86.8873 23.541C87.6591 23.9269 87.9716 24.866 87.5857 25.6378L84.4607 31.8878C84.1857 32.4347 83.6341 32.7503 83.0607 32.7503Z" fill="#FFA700"/>
<path d="M87.4431 68.291V84.1956H52.5224C48.1419 84.1956 44.5859 80.6326 44.5859 76.2433C44.5859 71.854 48.1419 68.291 52.5224 68.291H87.4431Z" fill="#C9D3E8"/>
<path d="M79.5089 50.7949C83.0168 50.7949 85.8581 53.6419 85.8581 57.1568C85.8581 60.6716 83.0168 63.5186 79.5089 63.5186H50.9375V50.7949H79.5089Z" fill="#C9D3E8"/>
<path d="M89.0317 82.6038H52.5238C49.0221 82.6038 46.1746 79.7506 46.1746 76.242C46.1746 72.7333 49.0221 69.8801 52.5238 69.8801H89.0317C89.9099 69.8801 90.619 69.1696 90.619 68.2897C90.619 67.4098 89.9099 66.6992 89.0317 66.6992H52.5238C47.2713 66.6992 43 70.979 43 76.242C43 81.5049 47.2713 85.7847 52.5238 85.7847H89.0317C89.9099 85.7847 90.619 85.0741 90.619 84.1943C90.619 83.3144 89.9099 82.6038 89.0317 82.6038Z" fill="#FFA700"/>
<path d="M79.5038 61.9287H49.3451C48.467 61.9287 47.7578 62.6393 47.7578 63.5192C47.7578 64.3991 48.467 65.1096 49.3451 65.1096H79.5038C83.8798 65.1096 87.4404 61.542 87.4404 57.1574C87.4404 52.7727 83.8798 49.2051 79.5038 49.2051H49.3451C48.467 49.2051 47.7578 49.9157 47.7578 50.7955C47.7578 51.6754 48.467 52.386 49.3451 52.386H79.5038C82.1289 52.386 84.2658 54.5271 84.2658 57.1574C84.2658 59.7877 82.1289 61.9287 79.5038 61.9287Z" fill="#1144AA"/>
</g>
<defs>
<clipPath id="clip0_153_847">
<rect width="100" height="100" fill="white"/>
</clipPath>
</defs>
</svg>
