<svg width="100" height="100" viewBox="0 0 100 100" fill="none" xmlns="http://www.w3.org/2000/svg">
<path d="M90.88 30.2249V82.8557H9.12183V30.2249C9.12183 26.8852 11.8293 24.1777 15.169 24.1777H84.8328C88.1726 24.1777 90.88 26.8852 90.88 30.2249Z" fill="#C9D3E8"/>
<path d="M90.8713 30.2306V82.8614H9.11304V79.2935H81.2562C84.6022 79.2935 87.3034 76.5925 87.3034 73.2463V26.6627C87.3034 25.9169 87.1622 25.2115 86.9206 24.5664C89.2385 25.413 90.8713 27.6302 90.8713 30.2306Z" fill="#798EBC"/>
<path d="M15.9753 73.9867V33.047C15.9753 31.9337 16.8778 31.0312 17.9911 31.0312H82.0113C83.1246 31.0312 84.027 31.9337 84.027 33.047V73.9867C84.027 75.0999 83.1246 76.0024 82.0113 76.0024H17.9911C16.8778 76.0024 15.9753 75.0999 15.9753 73.9867Z" fill="#497FEB"/>
<path d="M84.0182 33.0528V33.839H20.8049C19.6961 33.839 18.7891 34.7461 18.7891 35.8547V76.0081H17.9828C16.8743 76.0081 15.967 75.1012 15.967 73.9924V33.0528C15.967 31.9442 16.8743 31.0371 17.9828 31.0371H82.0025C83.1312 31.0371 84.0182 31.9442 84.0182 33.0528Z" fill="#1144AA"/>
<path d="M98.1663 85.8653L96.8654 88.7077C95.6851 91.3093 93.1076 92.9954 90.241 92.9954H9.73132C6.88874 92.9954 4.28727 91.3093 3.10696 88.7077L1.83019 85.8653C1.13167 84.3235 2.26377 82.541 3.97411 82.541H96.0224C97.7327 82.541 98.8648 84.3235 98.1663 85.8653Z" fill="#C9D3E8"/>
<path d="M98.1686 85.865L96.8583 88.7072C95.689 91.3075 93.1091 93.0007 90.2467 93.0007H9.73835C7.05727 93.0007 4.57796 91.4889 3.34839 89.1304C4.37643 89.7151 5.54547 90.0174 6.75511 90.0174H87.2634C90.1458 90.0174 92.7058 88.3444 93.8953 85.744L95.2053 82.9019C95.2658 82.7809 95.3062 82.66 95.3263 82.5391H96.0321C97.725 82.5391 98.8741 84.333 98.1686 85.865Z" fill="#798EBC"/>
<path d="M59.6731 86.6669C59.6731 87.6885 58.8461 88.5155 57.8247 88.5155H42.1604C41.139 88.5155 40.312 87.6885 40.312 86.6669C40.312 85.6454 41.139 84.8184 42.1604 84.8184H57.8247C58.8461 84.8184 59.6731 85.6454 59.6731 86.6669Z" fill="#D0D0F7"/>
<path d="M79.667 76.02L78.3626 63.3566C78.0201 61.0184 76.871 58.9421 75.2583 57.3899C74.5932 56.7852 73.8675 56.241 73.0612 55.8177C72.638 55.596 72.2347 55.4146 71.8114 55.2331C71.4689 55.1122 71.1262 54.9912 70.7632 54.9106C70.6222 54.8905 70.4409 54.83 70.2996 54.7897H70.2593L63.6073 53.4392L63.1235 53.3384L58.6486 52.4111L58.2052 52.3104L57.2983 52.1289H57.2175L42.7848 52.1693H42.7044L41.7971 52.3506L41.3537 52.4313L36.8587 53.3787L36.3949 53.4794L34.9839 53.7616L29.7229 54.8502H29.7027C29.5416 54.8905 29.3801 54.9106 29.1988 54.9712C28.856 55.0517 28.5135 55.1525 28.1909 55.2936C27.7475 55.4347 27.3241 55.6564 26.921 55.8581C26.1149 56.3015 25.389 56.8256 24.7239 57.4303C23.0913 58.9825 21.9422 61.0586 21.6196 63.3767L20.3391 76.02H79.667Z" fill="#FFA700"/>
<path d="M79.6569 76.0218H20.334L20.5958 73.5223H63.7732C70.5659 73.5223 75.8875 67.6364 75.182 60.8634C74.8998 58.9082 74.0531 57.1343 72.8238 55.7031C72.9042 55.7435 72.985 55.7838 73.0654 55.8241C73.8718 56.2474 74.5974 56.7917 75.2627 57.3964C76.8754 58.9486 78.0243 61.0247 78.3671 63.363L79.6569 76.0218Z" fill="#FF8800"/>
<path d="M60.1112 52.7193C59.9699 58.2222 55.4547 62.6367 49.9316 62.6165H49.8913C44.4085 62.5964 39.974 58.182 39.8328 52.7596L41.3446 52.4371L41.788 52.3565L42.6952 52.175H42.7757L57.2086 52.1348H57.2891L58.1963 52.3161L58.6397 52.4169L60.1112 52.7193Z" fill="#F2F5F9"/>
<path d="M56.8174 46.2793V52.5339C56.8174 56.326 53.7311 59.3958 49.939 59.3795H49.9225C46.1468 59.3631 43.1099 56.2933 43.1099 52.5339V46.2793H56.8174Z" fill="#F7C9A9"/>
<path d="M56.8174 46.8965V51.5587C54.6997 52.7079 52.3358 53.3153 49.9225 53.3153H49.7748C47.4109 53.2824 45.1455 52.7079 43.1099 51.6572V46.8965H56.8174Z" fill="#F0B68E"/>
<path d="M64.2132 30.0381V37.1273C64.2132 42.4307 61.318 47.2741 57.0158 49.8716C54.8917 51.1704 52.4159 51.901 49.7778 51.874C46.5849 51.8334 43.6355 50.7375 41.295 48.9246L41.3491 48.0182L40.7133 47.247C36.8846 42.566 36.0729 36.0314 38.8869 30.6739C38.9139 30.6198 38.941 30.5658 38.9815 30.498C40.6592 27.3593 43.7032 25.2894 46.0978 24.0583C47.6942 23.233 49.426 22.7459 51.1848 22.3672C55.0947 21.5148 55.947 19.4043 55.947 19.4043C57.3811 26.0741 61.5615 28.8881 64.2132 30.0381Z" fill="#F7C9A9"/>
<path d="M64.2132 17.9414V30.0364C61.5615 28.8863 57.3811 26.0724 55.947 19.4026C55.947 19.4026 55.0946 21.5131 51.1847 22.3654C49.426 22.7442 47.6942 23.2312 46.0978 24.0566C43.7032 25.2877 40.6592 27.3576 38.9815 30.4963C38.941 30.564 38.9139 30.6181 38.8869 30.6722C36.0728 36.0297 36.8845 42.5643 40.7133 47.2453L41.3491 48.0164L41.295 48.9228C40.7944 48.5441 40.3344 48.1382 39.888 47.7053C37.3175 45.1212 35.7075 41.563 35.7075 37.6261V17.9414H64.2132Z" fill="#F7C9A9"/>
<path d="M69.5708 25.3291C68.1925 41.4475 65.1716 47.8495 59.4824 53.9372C59.1658 54.276 58.6683 54.372 58.2448 54.1832C57.9081 54.0332 57.6688 53.7246 57.6072 53.3612L57.0158 49.8709C61.318 47.2733 64.2132 42.4297 64.2132 37.1264V34.6236V30.3065C61.5616 29.1566 57.3813 26.0734 55.9472 19.404C55.9451 19.4092 55.0788 21.5424 51.1083 22.3827C49.4307 22.7377 47.7766 23.2082 46.2462 23.9818C43.8304 25.203 40.6941 27.2932 38.9816 30.4972C38.941 30.5649 38.9139 30.619 38.8869 30.673C36.7103 34.8171 39.3417 43.4698 40.6454 47.1768C41.0738 48.395 41.2508 49.6799 41.1753 50.969C41.0735 52.7095 39.6962 54.1042 37.9571 54.2279L35.929 54.3722C34.7944 54.453 33.706 53.9373 33.0557 53.004C30.4031 49.1971 24.1332 38.6532 27.1572 27.6696C30.9319 13.9241 36.614 9.18893 44.6909 7.4708C50.8195 6.17199 56.7047 7.87666 59.1939 8.78308C59.8975 9.04013 60.6146 9.2431 61.3586 9.32427C63.9021 9.64896 70.7207 11.7595 69.5708 25.3291Z" fill="#2F3134"/>
<path fill-rule="evenodd" clip-rule="evenodd" d="M60.7969 9.24048C62.8462 11.4536 64.8302 14.3387 65.5076 17.5C66.3171 21.2776 65.3519 26.3292 64.1776 30.2915C64.1895 30.2967 64.2014 30.3019 64.2133 30.307V34.6241V37.1269C64.2133 42.4302 61.318 47.2738 57.0159 49.8714L57.6073 53.3617C57.6688 53.7251 57.9081 54.0336 58.2448 54.1837C58.6684 54.3725 59.1659 54.2765 59.4825 53.9377C65.1717 47.85 68.1926 41.448 69.5708 25.3295C70.7208 11.76 63.9022 9.64944 61.3587 9.32476C61.1698 9.30415 60.9826 9.27568 60.7969 9.24048Z" fill="black"/>
<path d="M24.4781 68.388C24.4556 68.388 24.4332 68.3871 24.4108 68.3847C24.0501 68.3479 23.7871 68.0256 23.824 67.6649L24.2312 63.6563C24.4661 62.0547 25.2853 60.5293 26.5413 59.3334C26.8051 59.0841 27.2187 59.0929 27.4696 59.3558C27.7197 59.6187 27.71 60.034 27.4471 60.284C26.4027 61.2796 25.7229 62.5341 25.5338 63.8182L25.1306 67.798C25.0961 68.1363 24.8107 68.388 24.4781 68.388Z" fill="#FF8800"/>
<path d="M24.1175 71.9478C24.0951 71.9478 24.0726 71.947 24.0502 71.9446C23.6895 71.9077 23.4265 71.5855 23.4634 71.2248L23.6013 69.8661C23.639 69.5054 23.9636 69.2393 24.3211 69.2794C24.6818 69.3163 24.9447 69.6385 24.9078 69.9992L24.77 71.3579C24.7355 71.6961 24.4501 71.9478 24.1175 71.9478Z" fill="#FF8800"/>
</svg>
