<svg width="100" height="100" viewBox="0 0 100 100" fill="none" xmlns="http://www.w3.org/2000/svg">
<path d="M88.0625 92H20.4688C13.5826 92 8 86.4174 8 79.5312C8 72.6451 13.5826 67.0625 20.4688 67.0625H88.0625V92Z" fill="#F2F5F9"/>
<path d="M27.0312 84.1245C20.1451 84.1245 14.5625 78.5418 14.5625 71.6557C14.5625 70.4977 14.724 69.3781 15.0188 68.3142C10.864 70.3368 8 74.5986 8 79.5307C8 86.4168 13.5826 91.9995 20.4688 91.9995H88.0625V84.1245H27.0312Z" fill="#C9D3E8"/>
<path d="M20.5969 72.3125H90.6875C91.4123 72.3125 92 71.7248 92 71V68.375C92 67.6502 91.4123 67.0625 90.6875 67.0625H20.4688C13.5826 67.0625 8 72.6451 8 79.5312C8 86.4174 13.5826 92 20.4688 92H90.6875C91.4123 92 92 91.4123 92 90.6875V88.0625C92 87.3377 91.4123 86.75 90.6875 86.75H20.4688C16.53 86.75 13.3179 83.5796 13.2513 79.6569C13.1821 75.6181 16.5575 72.3125 20.5969 72.3125Z" fill="#1144AA"/>
<path d="M25.0625 74.9375C24.3377 74.9375 23.75 75.5252 23.75 76.25C23.75 76.9748 24.3377 77.5625 25.0625 77.5625H88.0625V74.9375H25.0625Z" fill="#798EBC"/>
<path d="M23.75 82.8125C23.75 83.5373 24.3377 84.125 25.0625 84.125H88.0625V81.5H25.0625C24.3377 81.5 23.75 82.0877 23.75 82.8125Z" fill="#798EBC"/>
<path d="M50 27.6875C49.2752 27.6875 48.6875 27.0998 48.6875 26.375V9.3125C48.6875 8.58768 49.2752 8 50 8C50.7248 8 51.3125 8.58768 51.3125 9.3125V26.375C51.3125 27.0998 50.7248 27.6875 50 27.6875Z" fill="#2F3134"/>
<path d="M69.4672 15.147C69.3442 14.9624 66.3846 10.625 60.5002 10.625C54.6157 10.625 51.6562 14.9624 51.5331 15.147C51.239 15.5879 51.239 16.1621 51.5331 16.603C51.6562 16.7876 54.6157 21.125 60.5002 21.125C66.3846 21.125 69.3442 16.7876 69.4672 16.603C69.7614 16.1621 69.7614 15.5879 69.4672 15.147Z" fill="#C9D3E8"/>
<path d="M69.0154 14.5625C67.9765 15.7885 65.1542 18.5 60.5002 18.5C55.8462 18.5 53.0238 15.7885 51.9849 14.5625C51.7106 14.8868 51.5588 15.1085 51.5331 15.147C51.239 15.5879 51.239 16.1621 51.5331 16.603C51.6562 16.7876 54.6157 21.125 60.5002 21.125C66.3846 21.125 69.3442 16.7876 69.4672 16.603C69.7614 16.1621 69.7614 15.5879 69.4672 15.147C69.4416 15.1085 69.2897 14.8868 69.0154 14.5625Z" fill="#798EBC"/>
<path d="M33.7886 26.4452C37.9555 23.4414 43.5535 22.9422 50 24.9942C56.4465 22.9422 62.0445 23.4414 66.2114 26.4452C70.9231 29.8405 73.625 36.2556 73.625 44.0454C73.625 47.9771 72.6464 52.2107 70.8693 55.9668C68.9242 60.0793 66.2448 63.1881 63.1205 64.9569C60.2706 66.5706 55.7198 67.778 50 64.6384C47.3981 66.0669 45.0384 66.5956 42.9697 66.5956C40.4921 66.5956 38.433 65.8362 36.8795 64.9569C33.7552 63.1881 31.0758 60.0793 29.1307 55.9674C27.3536 52.2107 26.375 47.9771 26.375 44.0454C26.375 36.2556 29.0769 29.8405 33.7886 26.4452Z" fill="#FFA700"/>
<path d="M56.558 63.6408C59.6823 61.872 62.3617 58.7632 64.3068 54.6514C66.0839 50.8946 67.0625 46.661 67.0625 42.7293C67.0625 34.9395 64.3606 28.5244 59.6489 25.1291C58.901 24.5895 58.1057 24.1325 57.2694 23.7551C60.6826 23.7403 63.7063 24.6395 66.2114 26.4454C70.9231 29.8408 73.625 36.2559 73.625 44.0456C73.625 47.9774 72.6464 52.2109 70.8693 55.9671C68.9242 60.0795 66.2448 63.1884 63.1205 64.9572C60.4776 66.453 56.3722 67.5982 51.2292 65.2539C53.369 65.118 55.1667 64.4285 56.558 63.6408Z" fill="#FF8800"/>
<ellipse cx="37.9415" cy="36" rx="3.03188" ry="6.39752" transform="rotate(14.7829 37.9415 36)" fill="#F2F5F9"/>
</svg>
