<svg width="100" height="100" viewBox="0 0 100 100" fill="none" xmlns="http://www.w3.org/2000/svg">
<path d="M87.1161 15.8059H82.2324V83.2012H87.1161C89.8134 83.2012 91.9999 80.3367 91.9999 76.8029V22.2042C91.9999 18.6704 89.8133 15.8059 87.1161 15.8059Z" fill="#798EBC"/>
<path d="M86.9404 77.1348V37.9583L81.8693 29.6558L86.9404 22.5361C86.9404 19.0023 84.6701 16.1378 81.8693 16.1378H13.0711C10.2705 16.1378 8 19.0023 8 22.5361V77.1348C8 80.6686 10.2705 83.5331 13.0711 83.5331H81.8693C84.6699 83.5331 86.9404 80.6684 86.9404 77.1348Z" fill="#C9D3E8"/>
<path d="M79.323 20.8766L75.3511 24.7742L71.3793 20.8766H63.7737V38.6231H71.3793L75.3511 34.7254L79.323 38.6231H86.9286V20.8766H79.323Z" fill="#FFA700"/>
<path d="M53.6318 64.1442L43.491 42.5104L53.6318 20.8766H54.7953C56.953 20.8766 58.7022 22.6258 58.7022 24.7836V60.2372C58.7022 62.395 56.953 64.1442 54.7953 64.1442H53.6318Z" fill="#F2F5F9"/>
<path d="M13.0745 24.7836C13.0745 22.6258 14.8237 20.8766 16.9814 20.8766H53.6378V64.1442H16.9814C14.8237 64.1442 13.0745 62.395 13.0745 60.2372V24.7836Z" fill="white"/>
<path d="M30.5796 39.5797H40.5581V55.5456H30.5796V39.5797Z" fill="#F09D88"/>
<path d="M45.86 51.2987H40.7896L48.5642 59.0734H50.7044C52.3227 59.0734 53.6869 57.7158 53.0908 56.2112C51.9509 53.3337 49.1431 51.2987 45.86 51.2987Z" fill="#4856CF"/>
<path d="M40.7892 51.2987H25.916C22.6329 51.2987 19.8251 53.3337 18.6851 56.2112C18.0891 57.7158 19.4533 59.0734 21.0716 59.0734H48.5639C48.5639 54.7796 45.083 51.2987 40.7892 51.2987Z" fill="#5E70F2"/>
<path d="M36.3713 27.8588V48.3704C41.7657 48.3704 46.1388 43.7787 46.1388 38.1146C46.1388 32.4505 41.7657 27.8588 36.3713 27.8588Z" fill="#F09D88"/>
<path d="M41.2551 38.1146C41.2551 32.4505 38.9229 27.8588 36.0458 27.8588C30.2918 27.8588 25.6272 32.4505 25.6272 38.1146C25.6272 43.7787 30.2918 48.3704 36.0458 48.3704C38.9229 48.3704 41.2551 43.7787 41.2551 38.1146Z" fill="#FDC6B8"/>
<path d="M34.7137 23.9518H37.6019C43.1849 23.9518 47.7107 28.4777 47.7107 34.0606V36.3708C47.7107 37.4409 46.5752 38.1676 45.6287 37.6684C44.1637 36.8957 42.4452 35.454 41.2904 33.8988C40.8241 33.2707 39.9274 33.1776 39.3003 33.6455C34.7178 37.065 28.65 36.6707 26.0697 36.1611C26.0697 41.5332 27.0465 42.9983 25.5813 41.0448C24.1162 39.0913 24.2911 36.1611 24.6046 34.0607C25.7491 26.3936 29.1309 23.9518 34.7137 23.9518Z" fill="#2F3134"/>
<path d="M45.6285 37.666C44.1635 36.8933 42.4452 35.4516 41.2904 33.8964C41.1137 33.6584 40.8673 33.5226 40.605 33.4397C42.6466 30.5977 42.7859 27.4296 42.5322 25.2375C45.6205 26.9675 47.7107 30.2668 47.7107 34.0583V36.3685C47.7107 37.4386 46.5752 38.1653 45.6285 37.666Z" fill="black"/>
<path d="M82.0464 53.8361H63.7752C63.0749 53.8361 62.5076 53.2687 62.5076 52.5685C62.5076 51.8683 63.0749 51.3009 63.7752 51.3009H82.0464C82.7466 51.3009 83.314 51.8683 83.314 52.5685C83.314 53.2687 82.7466 53.8361 82.0464 53.8361Z" fill="#2F3134"/>
<path d="M82.0464 58.7198H63.7752C63.0749 58.7198 62.5076 58.1524 62.5076 57.4522C62.5076 56.752 63.0749 56.1846 63.7752 56.1846H82.0464C82.7466 56.1846 83.314 56.752 83.314 57.4522C83.314 58.1524 82.7466 58.7198 82.0464 58.7198Z" fill="#2F3134"/>
<path d="M82.0464 63.6036H63.7752C63.0749 63.6036 62.5076 63.0362 62.5076 62.336C62.5076 61.6357 63.0749 61.0684 63.7752 61.0684H82.0464C82.7466 61.0684 83.314 61.6357 83.314 62.336C83.314 63.0362 82.7466 63.6036 82.0464 63.6036Z" fill="#2F3134"/>
<path d="M79.2347 78.6497H16.8599C14.6639 78.6497 12.8845 76.1428 12.8845 74.2544C12.8845 72.3659 14.6639 69.859 16.8599 69.859L79.2347 69.859C81.4307 69.859 83.2101 72.3659 83.2101 74.2544C83.2101 76.1428 81.4307 78.6497 79.2347 78.6497Z" fill="#497FEB"/>
<path fill-rule="evenodd" clip-rule="evenodd" d="M77.5051 78.6495H79.2318C81.4278 78.6495 83.2071 76.1425 83.2071 74.2541C83.2071 72.3657 81.4278 69.8588 79.2318 69.8588H16.857C15.5702 69.8588 14.4265 70.7195 13.7 71.8123H74.348C76.544 71.8123 78.3234 74.3192 78.3234 76.2076C78.3234 76.9895 78.0184 77.8774 77.5051 78.6495Z" fill="#4856CF"/>
<path d="M79.3253 20.8766H71.3816V25.947L73.3675 29.7498L71.3816 33.5526V38.6231H79.3253V33.5526L77.3393 29.7498L79.3253 25.947V20.8766Z" fill="#FF8800"/>
<path d="M71.3816 25.9473H79.3253V33.5529H71.3816V25.9473Z" fill="#FDC6B8"/>
</svg>
