<svg width="100" height="100" viewBox="0 0 100 100" fill="none" xmlns="http://www.w3.org/2000/svg">
<path d="M69.8823 64.9356L76.0464 62.624C77.2181 62.1846 77.9945 61.0646 77.9945 59.813V57.3906H87V59.8132C87 61.0646 87.7762 62.1846 88.9478 62.624L95.1119 64.9356C97.4554 65.8143 99.0078 68.0544 99.0078 70.5571V81.4061C99.0078 83.0639 97.6638 84.408 96.0059 84.408H65.9866V70.5571C65.9866 68.0544 67.5391 65.8143 69.8823 64.9356Z" fill="#FDC6B8"/>
<path d="M82.4992 61.8936C80.8138 61.8936 79.2063 61.5695 77.7172 61.0031C77.8801 60.6309 77.9964 60.2366 77.9964 59.813V57.3906H87.002V59.8132C87.002 60.2365 87.1181 60.6309 87.2812 61.0029C85.7921 61.5695 84.1846 61.8936 82.4992 61.8936Z" fill="#F09D88"/>
<path d="M96.0059 84.4085H65.9866V70.5577C65.9866 68.055 67.5391 65.8149 69.8825 64.9361L75.8111 62.7129L80.3745 67.2763C81.5467 68.4485 83.4475 68.4485 84.62 67.2763L89.1833 62.7129L95.1121 64.9361C97.4554 65.8147 99.0078 68.0548 99.0078 70.5575V81.4064C99.0078 83.0645 97.6638 84.4085 96.0059 84.4085Z" fill="#FFA700"/>
<path d="M82.4431 58.8915H82.559C88.3298 58.8915 93.0078 54.2134 93.0078 48.4427V43.8238C93.0078 38.0531 88.3298 33.375 82.559 33.375H82.4431C76.6723 33.375 71.9943 38.0531 71.9943 43.8238V48.4425C71.9943 54.2132 76.6723 58.8915 82.4431 58.8915Z" fill="#FDC6B8"/>
<path d="M87.004 48.3847V43.8818C87.004 39.1229 83.8381 35.1081 79.4991 33.8158C80.4509 33.5324 81.4573 33.375 82.501 33.375C88.3037 33.375 93.0078 38.079 93.0078 43.8818V48.3847C93.0078 54.1873 88.3037 58.8915 82.501 58.8915C81.457 58.8915 80.4509 58.7341 79.4991 58.4507C83.8383 57.1582 87.004 53.1433 87.004 48.3847Z" fill="#F09D88"/>
<path d="M94.3228 71.0829L98.0602 67.3457C98.6586 68.2874 99.0078 69.391 99.0078 70.5587V81.4076C99.0078 83.0655 97.6638 84.4095 96.0059 84.4095H93.004V74.2669C93.004 73.0727 93.4783 71.9274 94.3228 71.0829Z" fill="#FF8800"/>
<path d="M83.9937 67.7417V84.4101H80.9917V67.7417C81.9198 68.2803 83.0658 68.2803 83.9937 67.7417Z" fill="#FF8800"/>
<path d="M82.497 39.379C79.1817 39.379 76.494 36.6914 76.494 33.376C76.494 30.0607 79.1817 27.373 82.497 27.373C85.8124 27.373 88.5 30.0607 88.5 33.376C88.5 36.6914 85.8124 39.379 82.497 39.379Z" fill="#1144AA"/>
<path d="M93.0078 43.8818V47.2501C91.3452 46.4626 89.309 45.2209 87.7508 43.3731C87.2956 42.8333 86.5169 42.7219 85.9012 43.0677C83.9226 44.1794 79.2825 46.2965 71.9943 46.7756V43.8818C71.9943 38.079 76.6982 33.375 82.501 33.375C88.3037 33.375 93.0078 38.079 93.0078 43.8818Z" fill="#497FEB"/>
<path d="M88.2371 35.0859C91.1074 36.9614 93.0078 40.1976 93.0078 43.8822V47.2506C91.3454 46.4633 89.3088 45.2214 87.7508 43.3736C87.512 43.0904 87.1838 42.9326 86.8373 42.8894C87.9491 40.7765 88.8176 38.0208 88.2371 35.0859Z" fill="#1144AA"/>
<path d="M4.45285 61.1966L11.9988 57.7031C13.0013 57.239 13.6472 56.2035 13.6472 55.0606V49.7109H24.7506V55.0606C24.7506 56.2032 25.3965 57.2388 26.399 57.7029L33.9452 61.1966C35.9501 62.1246 37.2422 64.1958 37.2422 66.4811V84.4095H3.93187C2.39876 84.4095 1.15603 83.115 1.15603 81.5179V66.4813C1.15583 64.1958 2.44788 62.1246 4.45285 61.1966Z" fill="#FDC6B8"/>
<path d="M4.45285 61.1945L11.9474 57.7248L17.2361 63.0134C18.3201 64.0975 20.0777 64.0975 21.1617 63.0134L26.4504 57.7246L33.9452 61.1945C35.9501 62.1228 37.2422 64.1937 37.2422 66.4792V84.4076L3.93167 84.4074C2.39855 84.4074 1.15583 83.1129 1.15583 81.5158V66.4792C1.15583 64.1937 2.44788 62.1228 4.45285 61.1945Z" fill="#FFA700"/>
<path d="M24.7485 49.7109V55.0606C24.7485 55.5902 24.8996 56.0898 25.1484 56.5271C23.3782 57.4906 21.3502 58.0385 19.1968 58.0385C17.0435 58.0385 15.0157 57.4908 13.2454 56.5273C13.4943 56.09 13.6453 55.5902 13.6453 55.0606V49.7109H24.7485Z" fill="#F09D88"/>
<path d="M19.1907 55.264C24.5564 55.264 28.9062 50.9141 28.9062 45.5484V37.2207H9.47514V45.5484C9.47514 50.9141 13.8248 55.264 19.1907 55.264Z" fill="#FDC6B8"/>
<path d="M23.3546 45.5484V37.2207H28.9062V45.5484C28.9062 50.9141 24.5564 55.264 19.1907 55.264C18.2254 55.264 17.2949 55.1185 16.4149 54.8562C20.4271 53.6614 23.3546 49.9488 23.3546 45.5484Z" fill="#F09D88"/>
<path d="M17.8133 30.2793H20.5891C25.9548 30.2793 30.3047 34.6292 30.3047 39.9949V42.2152C30.3047 43.2438 29.2134 43.9421 28.3036 43.4622C26.8955 42.7195 25.244 41.334 24.1342 39.8393C23.686 39.2357 22.8241 39.1461 22.2215 39.5957C17.8174 42.8823 11.6831 42.1268 9.20318 41.6369C8.55685 41.5093 8.09774 40.9363 8.09774 40.2776V39.9946C8.09774 34.6289 12.4476 30.2793 17.8133 30.2793Z" fill="#D59F63"/>
<path d="M28.3034 43.4606C26.8953 42.7178 25.2438 41.3323 24.134 39.8376C23.9642 39.6089 23.7273 39.4784 23.4753 39.3986C25.4376 36.6672 25.5713 33.6223 25.3276 31.5156C28.2956 33.1782 30.3047 36.3493 30.3047 39.9932V42.2135C30.3047 43.2419 29.2134 43.9402 28.3034 43.4606Z" fill="#CD915A"/>
<path d="M8.08594 72.2524C8.08594 71.148 7.64738 70.089 6.86643 69.308L1.64603 64.0876C1.3242 64.825 1.14623 65.6368 1.14623 66.4788V81.5154C1.14623 83.1125 2.38895 84.407 3.92207 84.407H8.08594V72.2524Z" fill="#FF8800"/>
<path d="M20.5781 63.4414V84.4064H17.8023V63.4414C18.6605 63.9396 19.7201 63.9396 20.5781 63.4414Z" fill="#FF8800"/>
<path d="M31.957 55.5L41.3538 51.1496C42.6021 50.5717 43.4067 49.2821 43.4067 47.8591V41.1973L57.2335 41.1975V47.8593C57.2335 49.2823 58.0379 50.5717 59.2863 51.1496L68.6834 55.5C71.1801 56.6558 72.7891 59.235 72.7891 62.0809V80.8061C72.7891 82.7948 71.2414 84.4069 69.3324 84.4069H31.308C29.3988 84.4069 27.8513 82.7946 27.8513 80.8061V62.0811C27.8513 59.2352 29.4603 56.656 31.957 55.5Z" fill="#FDC6B8"/>
<path d="M69.3322 84.4095L31.3078 84.4093C29.3986 84.4093 27.8511 82.7971 27.8511 80.8086V62.0836C27.8511 59.2375 29.4603 56.6585 31.9568 55.5025L41.2897 51.1818L47.8755 57.7677C49.2255 59.1177 51.4142 59.1177 52.7642 57.7677L59.3503 51.1816L68.6834 55.5025C71.1801 56.6583 72.7891 59.2373 72.7891 62.0834V80.8086C72.7891 82.7973 71.2414 84.4095 69.3322 84.4095Z" fill="#1144AA"/>
<path d="M57.2286 41.1973V47.8591C57.2286 48.5186 57.4169 49.1409 57.7266 49.6855C55.522 50.8853 52.9967 51.5676 50.315 51.5676C47.6335 51.5676 45.1084 50.8855 42.9036 49.6857C43.2136 49.1411 43.4016 48.5186 43.4016 47.8591V41.1973H57.2286Z" fill="#F09D88"/>
<path d="M50.3154 48.1116C56.9974 48.1116 62.4141 42.6947 62.4141 36.0129V25.6426H38.2165V36.0129C38.2167 42.6947 43.6336 48.1116 50.3154 48.1116Z" fill="#FDC6B8"/>
<path d="M55.5005 36.0129V25.6426H62.4141V36.0129C62.4141 42.6949 56.9972 48.1116 50.3154 48.1116C49.1134 48.1116 47.9545 47.9303 46.8587 47.6039C51.8549 46.1158 55.5005 41.4929 55.5005 36.0129Z" fill="#F09D88"/>
<path d="M48.5853 17.002H52.042C58.724 17.002 64.1406 22.4188 64.1406 29.1006V31.8656C64.1406 33.1463 62.7816 34.016 61.6488 33.4186C59.8954 32.4938 57.8386 30.7683 56.4566 28.907C55.8984 28.1553 54.8252 28.0439 54.0747 28.6039C48.5902 32.6964 40.9511 31.7558 37.8629 31.1459C37.0581 30.987 36.4862 30.2735 36.4862 29.4533V29.1008C36.4866 22.4188 41.9035 17.002 48.5853 17.002Z" fill="#2F3134"/>
<path d="M61.6486 33.4179C59.8952 32.4931 57.8386 30.7676 56.4566 28.9063C56.2451 28.6215 55.9502 28.4589 55.6362 28.3596C58.0797 24.9582 58.2464 21.1665 57.9428 18.543C61.6389 20.6135 64.1406 24.5622 64.1406 29.1001V31.865C64.1406 33.1458 62.7816 34.0155 61.6486 33.4179Z" fill="black"/>
<path d="M64.1393 69.2722C64.1393 67.8969 64.6855 66.5782 65.658 65.6057L72.159 59.1047C72.5597 60.023 72.7812 61.0339 72.7812 62.0822V80.8074C72.7812 82.7961 71.2335 84.4083 69.3245 84.4083H64.1393V69.2722Z" fill="#497FEB"/>
<path d="M36.4871 69.2722C36.4871 67.8969 35.9408 66.5782 34.9683 65.6057L28.4674 59.1047C28.0666 60.023 27.8451 61.0339 27.8451 62.0822V80.8074C27.8451 82.7961 29.3928 84.4083 31.3018 84.4083H36.4871V69.2722Z" fill="#497FEB"/>
<path d="M52.0374 58.3008V84.4083L48.5807 84.4081V58.3008C49.6491 58.921 50.9687 58.921 52.0374 58.3008Z" fill="#497FEB"/>
</svg>
