<svg width="100" height="100" viewBox="0 0 100 100" fill="none" xmlns="http://www.w3.org/2000/svg">
<path d="M9.6875 7H79.5625C80.2753 7 80.9588 7.28315 81.4629 7.78715C81.9669 8.29115 82.25 8.97473 82.25 9.6875V15.0625H7V9.6875C7 8.97473 7.28315 8.29115 7.78715 7.78715C8.29115 7.28315 8.97473 7 9.6875 7Z" fill="#2F3134"/>
<path d="M24.4688 7H50C51.4255 7 52.7927 7.56629 53.8007 8.5743C54.8087 9.58231 55.375 10.9495 55.375 12.375V15.0625H24.4688V7Z" fill="#798EBC"/>
<path d="M82.25 15.0625V71.5C82.25 72.2128 81.9669 72.8963 81.4629 73.4004C80.9588 73.9044 80.2753 74.1875 79.5625 74.1875H9.6875C8.97473 74.1875 8.29115 73.9044 7.78715 73.4004C7.28315 72.8963 7 72.2128 7 71.5V9.6875C7 8.97473 7.28315 8.29115 7.78715 7.78715C8.29115 7.28315 8.97473 7 9.6875 7H25.8125C27.238 7 28.6052 7.56629 29.6132 8.5743C30.6212 9.58231 31.1875 10.9495 31.1875 12.375V15.0625H82.25Z" fill="#F2F5F9"/>
<path d="M78.2188 11.0312C78.2188 10.6749 78.0772 10.3331 77.8252 10.0811C77.5732 9.82907 77.2314 9.6875 76.875 9.6875C76.5186 9.6875 76.1768 9.82907 75.9248 10.0811C75.6728 10.3331 75.5312 10.6749 75.5312 11.0312C75.5312 11.3876 75.6728 11.7294 75.9248 11.9814C76.1768 12.2334 76.5186 12.375 76.875 12.375C77.2314 12.375 77.5732 12.2334 77.8252 11.9814C78.0772 11.7294 78.2188 11.3876 78.2188 11.0312Z" fill="#FF8800"/>
<path d="M72.4705 10.923C72.4705 10.5666 72.3289 10.2248 72.0769 9.9728C71.8249 9.7208 71.4831 9.57922 71.1267 9.57922C70.7703 9.57922 70.4285 9.7208 70.1765 9.9728C69.9245 10.2248 69.783 10.5666 69.783 10.923C69.783 11.2794 69.9245 11.6211 70.1765 11.8731C70.4285 12.1252 70.7703 12.2667 71.1267 12.2667C71.4831 12.2667 71.8249 12.1252 72.0769 11.8731C72.3289 11.6211 72.4705 11.2794 72.4705 10.923Z" fill="#FFA700"/>
<path d="M67.4688 11.0312C67.4688 10.6749 67.3272 10.3331 67.0752 10.0811C66.8232 9.82907 66.4814 9.6875 66.125 9.6875C65.7686 9.6875 65.4268 9.82907 65.1748 10.0811C64.9228 10.3331 64.7812 10.6749 64.7812 11.0312C64.7812 11.3876 64.9228 11.7294 65.1748 11.9814C65.4268 12.2334 65.7686 12.375 66.125 12.375C66.4814 12.375 66.8232 12.2334 67.0752 11.9814C67.3272 11.7294 67.4688 11.3876 67.4688 11.0312Z" fill="#F3F3F3"/>
<path d="M51.3438 11.0312C51.3438 10.6749 51.2022 10.3331 50.9502 10.0811C50.6982 9.82907 50.3564 9.6875 50 9.6875C49.6436 9.6875 49.3018 9.82907 49.0498 10.0811C48.7978 10.3331 48.6562 10.6749 48.6562 11.0312C48.6562 11.3876 48.7978 11.7294 49.0498 11.9814C49.3018 12.2334 49.6436 12.375 50 12.375C50.3564 12.375 50.6982 12.2334 50.9502 11.9814C51.2022 11.7294 51.3438 11.3876 51.3438 11.0312Z" fill="#FFA700"/>
<path d="M27.1562 11.0312C27.1562 10.6749 27.0147 10.3331 26.7627 10.0811C26.5107 9.82907 26.1689 9.6875 25.8125 9.6875C25.4561 9.6875 25.1143 9.82907 24.8623 10.0811C24.6103 10.3331 24.4688 10.6749 24.4688 11.0312C24.4688 11.3876 24.6103 11.7294 24.8623 11.9814C25.1143 12.2334 25.4561 12.375 25.8125 12.375C26.1689 12.375 26.5107 12.2334 26.7627 11.9814C27.0147 11.7294 27.1562 11.3876 27.1562 11.0312Z" fill="#1144AA"/>
<path d="M19.0938 23.125C19.0938 22.3829 19.6954 21.7812 20.4375 21.7812H36.5625C37.3046 21.7812 37.9062 22.3829 37.9062 23.125C37.9062 23.8671 37.3046 24.4688 36.5625 24.4688H20.4375C19.6954 24.4688 19.0938 23.8671 19.0938 23.125Z" fill="#497FEB"/>
<path d="M19.0938 28.5C19.0938 27.7579 19.6954 27.1562 20.4375 27.1562H31.1875C31.9296 27.1562 32.5312 27.7579 32.5312 28.5C32.5312 29.2421 31.9296 29.8438 31.1875 29.8438H20.4375C19.6954 29.8438 19.0938 29.2421 19.0938 28.5Z" fill="#497FEB"/>
<path d="M21.7812 39.25C21.7812 38.5079 22.3829 37.9062 23.125 37.9062H32.5312C33.2734 37.9062 33.875 38.5079 33.875 39.25C33.875 39.9921 33.2734 40.5938 32.5312 40.5938H23.125C22.3829 40.5938 21.7812 39.9921 21.7812 39.25Z" fill="#497FEB"/>
<path d="M21.7812 52.6875C21.7812 51.9454 22.3829 51.3438 23.125 51.3438H32.5312C33.2734 51.3438 33.875 51.9454 33.875 52.6875C33.875 53.4296 33.2734 54.0312 32.5312 54.0312H23.125C22.3829 54.0312 21.7812 53.4296 21.7812 52.6875Z" fill="#497FEB"/>
<path d="M19.0938 33.875C19.0938 33.1329 19.6954 32.5312 20.4375 32.5312H41.9375C42.6796 32.5312 43.2812 33.1329 43.2812 33.875C43.2812 34.6171 42.6796 35.2188 41.9375 35.2188H20.4375C19.6954 35.2188 19.0938 34.6171 19.0938 33.875Z" fill="#497FEB"/>
<path d="M41.9375 23.125C41.9375 22.3829 42.5391 21.7812 43.2812 21.7812H62.0938C62.8359 21.7812 63.4375 22.3829 63.4375 23.125C63.4375 23.8671 62.8359 24.4688 62.0938 24.4688H43.2812C42.5391 24.4688 41.9375 23.8671 41.9375 23.125Z" fill="#497FEB"/>
<path d="M54.0312 28.5C54.0312 27.7579 54.6329 27.1562 55.375 27.1562H74.1875C74.9296 27.1562 75.5312 27.7579 75.5312 28.5C75.5312 29.2421 74.9296 29.8438 74.1875 29.8438H55.375C54.6329 29.8438 54.0312 29.2421 54.0312 28.5Z" fill="#497FEB"/>
<path d="M36.5625 39.25C36.5625 38.5079 37.1641 37.9062 37.9062 37.9062H71.5C72.2421 37.9062 72.8438 38.5079 72.8438 39.25C72.8438 39.9921 72.2421 40.5938 71.5 40.5938H37.9062C37.1641 40.5938 36.5625 39.9921 36.5625 39.25Z" fill="#497FEB"/>
<path d="M62.0415 33.879C62.0415 33.1357 62.6441 32.5331 63.3874 32.5331H69.2956C70.0389 32.5331 70.6415 33.1357 70.6415 33.879C70.6415 34.6223 70.0389 35.2249 69.2956 35.2249H63.3874C62.6441 35.2249 62.0415 34.6223 62.0415 33.879Z" fill="#497FEB"/>
<path d="M45.7 33.879C45.7 33.1357 46.3025 32.5331 47.0459 32.5331H57.2541C57.9974 32.5331 58.6 33.1357 58.6 33.879C58.6 34.6223 57.9974 35.2249 57.2541 35.2249H47.0459C46.3025 35.2249 45.7 34.6223 45.7 33.879Z" fill="#497FEB"/>
<path d="M19.0938 58.0625C19.0938 57.3204 19.6954 56.7188 20.4375 56.7188H41.9375C42.6796 56.7188 43.2812 57.3204 43.2812 58.0625C43.2812 58.8046 42.6796 59.4062 41.9375 59.4062H20.4375C19.6954 59.4062 19.0938 58.8046 19.0938 58.0625Z" fill="#497FEB"/>
<path d="M45.9688 58.0625C45.9688 57.3204 46.5704 56.7188 47.3125 56.7188H66.125C66.8671 56.7188 67.4688 57.3204 67.4688 58.0625C67.4688 58.8046 66.8671 59.4062 66.125 59.4062H47.3125C46.5704 59.4062 45.9688 58.8046 45.9688 58.0625Z" fill="#497FEB"/>
<path d="M35.2188 28.5C35.2188 27.7579 35.8204 27.1562 36.5625 27.1562H50C50.7421 27.1562 51.3438 27.7579 51.3438 28.5C51.3438 29.2421 50.7421 29.8438 50 29.8438H36.5625C35.8204 29.8438 35.2188 29.2421 35.2188 28.5Z" fill="#497FEB"/>
<path d="M19.0938 44.625C19.0938 43.8829 19.6954 43.2812 20.4375 43.2812H31.1875C31.9296 43.2812 32.5312 43.8829 32.5312 44.625C32.5312 45.3671 31.9296 45.9688 31.1875 45.9688H20.4375C19.6954 45.9688 19.0938 45.3671 19.0938 44.625Z" fill="#497FEB"/>
<path d="M54.0312 44.625C54.0312 43.8829 54.6329 43.2812 55.375 43.2812H74.1875C74.9296 43.2812 75.5312 43.8829 75.5312 44.625C75.5312 45.3671 74.9296 45.9688 74.1875 45.9688H55.375C54.6329 45.9688 54.0312 45.3671 54.0312 44.625Z" fill="#497FEB"/>
<path d="M35.2188 44.625C35.2188 43.8829 35.8204 43.2812 36.5625 43.2812H50C50.7421 43.2812 51.3438 43.8829 51.3438 44.625C51.3438 45.3671 50.7421 45.9688 50 45.9688H36.5625C35.8204 45.9688 35.2188 45.3671 35.2188 44.625Z" fill="#497FEB"/>
<path d="M30.8411 72.8438L31.1233 72.1853C30.5881 71.4367 30.3014 70.539 30.3036 69.6187C30.3036 67.4688 31.5668 66.5281 32.9911 65.1172C33.6313 64.4984 34.4444 64.0886 35.3227 63.9422C36.201 63.7959 37.103 63.9197 37.9093 64.2975V59.4063H43.2843V56.7188H37.9093C37.9093 49.1938 37.2777 51.6797 40.6908 45.9688H48.5652C49.9089 48.2397 50.8764 49.9194 51.0108 50C51.4946 50.8869 51.3468 51.3438 51.3468 56.7188H45.9718V59.4063H51.3468V64.2975C51.9181 64.028 52.5426 63.8903 53.1743 63.8944C55.3108 63.8944 56.2649 65.1575 57.6758 66.5819C58.4072 67.3221 58.854 68.2967 58.9375 69.3339C59.0211 70.3712 58.7361 71.4047 58.1327 72.2525L58.4149 72.9109C59.3548 73.0803 60.2136 73.5522 60.8605 74.2547H28.3955C29.0327 73.5274 29.8925 73.0313 30.8411 72.8438Z" fill="#C9D3E8"/>
<path d="M37.9062 56.7188H43.2812V59.4062H37.9062V56.7188Z" fill="#1144AA"/>
<path d="M46.9546 43.2797C42.0902 43.2797 42.238 43.3738 42.3321 43.2797C42.5701 42.8787 42.9083 42.5465 43.3135 42.3157C43.7187 42.085 44.177 41.9636 44.6433 41.9636C45.1097 41.9636 45.568 42.085 45.9732 42.3157C46.3784 42.5465 46.7166 42.8787 46.9546 43.2797Z" fill="#C9D3E8"/>
<path d="M48.5653 45.9688H40.6909L42.3034 43.2812H46.9528L48.5653 45.9688Z" fill="#1144AA"/>
<path d="M45.9688 56.7188H51.3438V59.4062H45.9688V56.7188Z" fill="#1144AA"/>
<path d="M59.4062 79.1997V77.2378C59.4062 76.7852 59.2265 76.3511 58.9064 76.0311C58.5864 75.711 58.1523 75.5312 57.6997 75.5312C57.3502 75.5348 57.0084 75.4292 56.7218 75.2293C56.4352 75.0294 56.218 74.7451 56.1006 74.4159C55.8913 73.8775 55.6489 73.3524 55.375 72.8438C55.222 72.5288 55.1721 72.1736 55.2324 71.8287C55.2927 71.4837 55.4601 71.1666 55.7109 70.9222C56.0261 70.5985 56.2025 70.1646 56.2025 69.7128C56.2025 69.261 56.0261 68.8271 55.7109 68.5034L54.3672 67.1597C54.2086 67.0004 54.0202 66.874 53.8126 66.7878C53.6051 66.7016 53.3826 66.6572 53.1578 66.6572C52.9331 66.6572 52.7105 66.7016 52.503 66.7878C52.2955 66.874 52.107 67.0004 51.9484 67.1597C51.6978 67.4101 51.3743 67.5749 51.0244 67.6304C50.6744 67.6859 50.3159 67.6293 50 67.4688C49.4769 67.2116 48.9384 66.9872 48.3875 66.7969C48.0558 66.6716 47.7726 66.4438 47.5793 66.1465C47.386 65.8493 47.2925 65.4981 47.3125 65.1441C47.309 64.6925 47.1281 64.2605 46.8088 63.9412C46.4895 63.6219 46.0575 63.441 45.6059 63.4375H43.6441C43.1915 63.4375 42.7574 63.6173 42.4373 63.9373C42.1173 64.2574 41.9375 64.6915 41.9375 65.1441C41.941 65.4935 41.8355 65.8353 41.6356 66.122C41.4357 66.4086 41.1513 66.6257 40.8222 66.7431C40.2837 66.9525 39.7587 67.1948 39.25 67.4688C38.935 67.6218 38.5799 67.6717 38.2349 67.6114C37.89 67.5511 37.5728 67.3836 37.3284 67.1328C37.0048 66.8176 36.5708 66.6412 36.1191 66.6412C35.6673 66.6412 35.2334 66.8176 34.9097 67.1328L33.5659 68.4766C33.4067 68.6351 33.2803 68.8236 33.1941 69.0311C33.1078 69.2387 33.0634 69.4612 33.0634 69.6859C33.0634 69.9107 33.1078 70.1332 33.1941 70.3407C33.2803 70.5483 33.4067 70.7367 33.5659 70.8953C33.8164 71.146 33.9811 71.4694 34.0367 71.8194C34.0922 72.1693 34.0356 72.5279 33.875 72.8438C33.6179 73.3668 33.3935 73.9054 33.2031 74.4563C33.0875 74.7865 32.8708 75.072 32.5837 75.2722C32.2967 75.4724 31.954 75.5771 31.6041 75.5716C31.1501 75.5607 30.7103 75.7298 30.3805 76.0419C30.0508 76.3541 29.8578 76.784 29.8438 77.2378V79.1997C29.8438 79.6523 30.0235 80.0864 30.3436 80.4064C30.6636 80.7265 31.0977 80.9062 31.5503 80.9062C31.8998 80.9027 32.2416 81.0083 32.5282 81.2082C32.8148 81.4081 33.032 81.6924 33.1494 82.0216C33.3587 82.56 33.6011 83.0851 33.875 83.5938C34.028 83.9087 34.0779 84.2639 34.0176 84.6088C33.9573 84.9538 33.7899 85.2709 33.5391 85.5153C33.2239 85.839 33.0475 86.2729 33.0475 86.7247C33.0475 87.1765 33.2239 87.6104 33.5391 87.9341L34.8828 89.2778C35.0414 89.4371 35.2298 89.5635 35.4374 89.6497C35.6449 89.7359 35.8674 89.7803 36.0922 89.7803C36.3169 89.7803 36.5395 89.7359 36.747 89.6497C36.9545 89.5635 37.143 89.4371 37.3016 89.2778C37.5522 89.0274 37.8757 88.8626 38.2256 88.8071C38.5756 88.7516 38.9341 88.8082 39.25 88.9688C39.7731 89.2259 40.3116 89.4503 40.8625 89.6406C41.1942 89.7659 41.4774 89.9937 41.6707 90.291C41.864 90.5882 41.9575 90.9394 41.9375 91.2934C41.941 91.745 42.1219 92.177 42.4412 92.4963C42.7605 92.8156 43.1925 92.9965 43.6441 93H45.6059C46.0585 93 46.4926 92.8202 46.8127 92.5002C47.1327 92.1801 47.3125 91.746 47.3125 91.2934C47.309 90.944 47.4145 90.6022 47.6144 90.3155C47.8143 90.0289 48.0987 89.8118 48.4278 89.6944C48.9663 89.485 49.4913 89.2427 50 88.9688C50.315 88.8157 50.6701 88.7658 51.0151 88.8261C51.36 88.8864 51.6772 89.0539 51.9216 89.3047C52.2452 89.6199 52.6792 89.7963 53.1309 89.7963C53.5827 89.7963 54.0166 89.6199 54.3403 89.3047L55.6841 87.9609C55.8433 87.8024 55.9697 87.6139 56.0559 87.4064C56.1422 87.1988 56.1866 86.9763 56.1866 86.7516C56.1866 86.5268 56.1422 86.3043 56.0559 86.0968C55.9697 85.8892 55.8433 85.7008 55.6841 85.5422C55.4336 85.2915 55.2689 84.9681 55.2133 84.6181C55.1578 84.2682 55.2144 83.9096 55.375 83.5938C55.6321 83.0707 55.8565 82.5321 56.0469 81.9812C56.1721 81.6495 56.4 81.3664 56.6972 81.173C56.9945 80.9797 57.3457 80.8862 57.6997 80.9062C58.1512 80.9027 58.5832 80.7218 58.9025 80.4025C59.2218 80.0832 59.4027 79.6512 59.4062 79.1997ZM44.625 84.9375C43.2962 84.9375 41.9972 84.5435 40.8923 83.8052C39.7874 83.0669 38.9262 82.0176 38.4177 80.7899C37.9092 79.5622 37.7761 78.2113 38.0353 76.908C38.2946 75.6047 38.9345 74.4075 39.8741 73.4679C40.8138 72.5282 42.0109 71.8883 43.3142 71.6291C44.6175 71.3699 45.9685 71.5029 47.1962 72.0114C48.4238 72.52 49.4732 73.3811 50.2114 74.486C50.9497 75.5909 51.3438 76.8899 51.3438 78.2188C51.3438 80.0007 50.6359 81.7096 49.3759 82.9696C48.1159 84.2296 46.4069 84.9375 44.625 84.9375Z" fill="#1144AA"/>
<path d="M47.3125 66.4341V63.4375H41.9375V66.4341C41.4815 66.5399 41.0327 66.6746 40.5938 66.8372V72.8438C41.7567 71.9715 43.1713 71.5 44.625 71.5C46.0787 71.5 47.4933 71.9715 48.6562 72.8438V66.8372C48.2173 66.6746 47.7685 66.5399 47.3125 66.4341Z" fill="#00BEBD"/>
<path d="M48.6562 51.3438V83.5938C47.4933 84.466 46.0787 84.9375 44.625 84.9375C43.1713 84.9375 41.7567 84.466 40.5938 83.5938V51.3438H48.6562Z" fill="#FFA700"/>
<path d="M44.625 82.25C43.5558 82.25 42.5305 81.8253 41.7745 81.0693C41.0185 80.3133 40.5938 79.2879 40.5938 78.2188V83.5938C41.7567 84.466 43.1713 84.9375 44.625 84.9375C46.0787 84.9375 47.4933 84.466 48.6562 83.5938V78.2188C48.6562 79.2879 48.2315 80.3133 47.4755 81.0693C46.7195 81.8253 45.6942 82.25 44.625 82.25Z" fill="#FF8800"/>
<path d="M48.6562 51.3438H40.5938L44.625 44.625L48.6562 51.3438Z" fill="#FDC6B8"/>
<path d="M46.2375 47.3125H43.0125L44.625 44.625L46.2375 47.3125Z" fill="#FFA700"/>
<path d="M11.0312 23.125C11.0312 22.3829 11.6329 21.7812 12.375 21.7812C13.1171 21.7812 13.7188 22.3829 13.7188 23.125V68.8125C13.7188 69.5546 13.1171 70.1562 12.375 70.1562C11.6329 70.1562 11.0312 69.5546 11.0312 68.8125V23.125Z" fill="#1144AA"/>
<path d="M82.25 19.0938V43.2812H71.5C70.5574 43.2803 69.6317 43.0315 68.8156 42.5598C67.9996 42.0881 67.3219 41.41 66.8506 40.5938H72.8438V37.9062H66.125V35.2188H67.4688V32.5312H66.125V29.8438H75.5312V27.1562H66.125V24.4688C66.125 23.0432 66.6913 21.6761 67.6993 20.6681C68.7073 19.66 70.0745 19.0938 71.5 19.0938H82.25Z" fill="#C9D3E8"/>
<path d="M66.125 32.5312H70.0466V35.2188H66.125V32.5312Z" fill="#1144AA"/>
<path d="M66.125 37.9062H72.8438V40.5938H66.8506C66.3769 39.7772 66.1267 38.8503 66.125 37.9062Z" fill="#1144AA"/>
<path d="M66.125 27.1562H75.5312V29.8438H66.125V27.1562Z" fill="#1144AA"/>
<path d="M90.3125 21.7812H71.5C70.0157 21.7812 68.8125 22.9845 68.8125 24.4688V37.9062C68.8125 39.3905 70.0157 40.5938 71.5 40.5938H90.3125C91.7968 40.5938 93 39.3905 93 37.9062V24.4688C93 22.9845 91.7968 21.7812 90.3125 21.7812Z" fill="#FFA700"/>
<path d="M75.5315 35.2186C74.8058 35.2186 74.7655 35.0171 71.8899 32.1414C71.764 32.0165 71.664 31.8679 71.5958 31.7042C71.5276 31.5404 71.4924 31.3648 71.4924 31.1874C71.4924 31.01 71.5276 30.8344 71.5958 30.6706C71.664 30.5069 71.764 30.3582 71.8899 30.2333L74.5774 27.5458C74.8304 27.2928 75.1736 27.1506 75.5315 27.1506C75.8893 27.1506 76.2325 27.2928 76.4855 27.5458C76.7386 27.7989 76.8807 28.142 76.8807 28.4999C76.8807 28.8577 76.7386 29.2009 76.4855 29.4539L74.7387 31.1874L76.4855 32.9208C76.675 33.1088 76.8043 33.3489 76.8568 33.6106C76.9093 33.8723 76.8827 34.1437 76.7803 34.3902C76.678 34.6367 76.5045 34.8471 76.2821 34.9947C76.0597 35.1422 75.7984 35.2202 75.5315 35.2186Z" fill="#F3F3F3"/>
<path d="M86.2815 35.2186C86.0146 35.2202 85.7533 35.1422 85.5309 34.9947C85.3084 34.8471 85.135 34.6367 85.0327 34.3902C84.9303 34.1437 84.9037 33.8723 84.9562 33.6106C85.0087 33.3489 85.1379 33.1088 85.3274 32.9208L87.0743 31.1874L85.3274 29.4539C85.0744 29.2009 84.9322 28.8577 84.9322 28.4999C84.9322 28.142 85.0744 27.7989 85.3274 27.5458C85.5805 27.2928 85.9237 27.1506 86.2815 27.1506C86.6393 27.1506 86.9825 27.2928 87.2356 27.5458L89.9231 30.2333C90.049 30.3582 90.149 30.5069 90.2172 30.6706C90.2854 30.8344 90.3205 31.01 90.3205 31.1874C90.3205 31.3648 90.2854 31.5404 90.2172 31.7042C90.149 31.8679 90.049 32.0165 89.9231 32.1414C86.9937 35.0708 87.0071 35.2186 86.2815 35.2186Z" fill="#F3F3F3"/>
<path d="M78.2168 36.2399L80.9043 25.4899C81.0007 25.1562 81.2226 24.8728 81.5235 24.6991C81.8243 24.5255 82.1808 24.4751 82.518 24.5585C82.8552 24.6419 83.147 24.8527 83.3321 25.1466C83.5173 25.4405 83.5815 25.7947 83.5112 26.1349L80.8237 36.8849C80.7272 37.2186 80.5053 37.502 80.2045 37.6757C79.9036 37.8493 79.5472 37.8997 79.21 37.8163C78.8728 37.7329 78.581 37.5221 78.3958 37.2282C78.2106 36.9343 78.1465 36.5801 78.2168 36.2399Z" fill="#F3F3F3"/>
</svg>
