<svg width="40" height="40" viewBox="0 0 40 40" fill="none" xmlns="http://www.w3.org/2000/svg">
<path d="M4.0061 11.768L20.0001 19.764L35.9941 11.768C35.9349 10.7489 35.4883 9.79098 34.7457 9.09045C34.0032 8.38993 33.0209 7.99981 32.0001 8H8.0001C6.97927 7.99981 5.997 8.38993 5.25446 9.09045C4.51192 9.79098 4.06531 10.7489 4.0061 11.768Z" fill="#FFA700"/>
<path d="M36 16.2363L20 24.2363L4 16.2363V28.0003C4 29.0612 4.42143 30.0786 5.17157 30.8288C5.92172 31.5789 6.93913 32.0003 8 32.0003H32C33.0609 32.0003 34.0783 31.5789 34.8284 30.8288C35.5786 30.0786 36 29.0612 36 28.0003V16.2363Z" fill="#FFA700"/>
</svg>
