<svg width="40" height="40" viewBox="0 0 40 40" fill="none" xmlns="http://www.w3.org/2000/svg">
<path fill-rule="evenodd" clip-rule="evenodd" d="M8.68631 5H13.9682C14.183 5 14.3927 5.06597 14.5693 5.1891C14.746 5.31224 14.8811 5.48668 14.9567 5.68916L17.0069 11.1769C17.0745 11.3584 17.0916 11.555 17.0562 11.7455L16.0283 17.2928C17.2914 20.282 19.3768 22.2914 22.8338 24.0937L28.2762 23.0302C28.4696 22.9926 28.6696 23.0103 28.8535 23.0812L34.3199 25.1799C34.5197 25.2565 34.6917 25.3925 34.8132 25.5697C34.9346 25.747 34.9998 25.9572 35 26.1725V31.2547C35 33.5604 32.9836 35.4308 30.6235 34.9132C26.3245 33.9716 18.3587 31.5766 12.7797 25.9584C7.43449 20.577 5.64335 13.1437 5.04208 9.12645C4.69709 6.83209 6.52343 5 8.68631 5Z" fill="#FFA700"/>
</svg>
