<svg width="40" height="40" viewBox="0 0 40 40" fill="none" xmlns="http://www.w3.org/2000/svg">
<path d="M26 15C26 13.3438 25.4141 11.9297 24.2422 10.7578C23.0703 9.58594 21.6562 9 20 9C18.3438 9 16.9297 9.58594 15.7578 10.7578C14.5859 11.9297 14 13.3438 14 15C14 16.6562 14.5859 18.0703 15.7578 19.2422C16.9297 20.4141 18.3438 21 20 21C21.6562 21 23.0703 20.4141 24.2422 19.2422C25.4141 18.0703 26 16.6562 26 15ZM32 15C32 16.7031 31.7422 18.1016 31.2266 19.1953L22.6953 37.3359C22.4453 37.8516 22.0742 38.2578 21.582 38.5547C21.0898 38.8516 20.5625 39 20 39C19.4375 39 18.9102 38.8516 18.418 38.5547C17.9258 38.2578 17.5625 37.8516 17.3281 37.3359L8.77344 19.1953C8.25781 18.1016 8 16.7031 8 15C8 11.6875 9.17188 8.85938 11.5156 6.51562C13.8594 4.17188 16.6875 3 20 3C23.3125 3 26.1406 4.17188 28.4844 6.51562C30.8281 8.85938 32 11.6875 32 15Z" fill="#FFA700"/>
</svg>
