<svg width="92" height="77" viewBox="0 0 92 77" fill="none" xmlns="http://www.w3.org/2000/svg">
<g clip-path="url(#clip0_153_1030)">
<path d="M55.7097 38.1917C55.7097 44.9522 61.1583 50.4312 67.8811 50.4312C74.604 50.4312 80.0526 44.9522 80.0526 38.1917C80.0526 38.1917 80.0611 37.4418 82.5411 37.4418C85.024 37.4418 85.024 38.1917 85.024 38.1917C85.024 47.7132 77.3497 55.4305 67.8811 55.4305C58.4126 55.4305 50.7383 47.7132 50.7383 38.1917C50.7383 28.6701 58.4126 20.9529 67.8811 20.9529C67.8811 20.9529 68.624 20.8322 68.624 23.3261C68.624 25.8199 67.8811 25.9521 67.8811 25.9521C61.1583 25.9521 55.7097 31.4312 55.7097 38.1917Z" fill="#1144AA"/>
<path d="M36.3841 38.5058C36.3841 31.7453 30.9355 26.2662 24.2127 26.2662C17.4898 26.2662 12.0413 31.7453 12.0413 38.5058C12.0413 38.5058 12.0984 39.5056 9.61554 39.5056C7.13554 39.5056 7.06982 38.5058 7.06982 38.5058C7.06982 28.9842 14.7441 21.267 24.2127 21.267C33.6813 21.267 41.3555 28.9842 41.3555 38.5058C41.3555 48.0273 33.6813 55.7446 24.2127 55.7446C24.2127 55.7446 22.5984 55.555 22.5984 53.0611C22.5984 50.5643 24.2127 50.7453 24.2127 50.7453C30.9355 50.7453 36.3841 45.2663 36.3841 38.5058Z" fill="#FFA700"/>
<path d="M67.8012 18.8564C57.1355 18.8564 48.3612 28.1769 48.3612 38.9023C48.3612 38.9023 48.3012 39.8159 46.524 37.9771C44.7469 36.1383 44.2783 33.6559 44.2783 33.6559C46.8869 22.9966 54.4669 14.0008 67.8012 14.0008C81.1355 14.0008 91.944 24.8699 91.944 38.2788C91.944 38.2788 92.0155 42.1087 91.5355 45.9472C91.1926 48.6681 90.5126 51.0212 89.6012 53.6759C87.4069 60.0801 81.3012 66.3895 81.3012 66.3895C81.3012 66.3895 78.4869 69.3862 73.1897 72.6128C67.8926 75.8364 61.9812 76.7874 61.9812 76.7874C61.9812 76.7874 60.9469 76.4685 61.4755 74.0321C62.0069 71.5957 63.0926 71.6704 63.0926 71.6704C63.0926 71.6704 67.1955 70.6619 71.6097 67.9267C76.0212 65.1886 79.6297 60.9766 79.6297 60.9766C79.6297 60.9766 83.6612 56.1009 85.3469 50.5816C87.0297 45.0651 87.1155 38.2788 87.1155 38.2788C87.1155 27.5534 78.4669 18.8564 67.8012 18.8564Z" fill="#FFA700"/>
<path d="M24.3811 57.4823C35.0469 57.4823 43.784 49.0467 43.784 38.3213C43.784 38.3213 43.924 37.5485 44.3726 38.3644C44.824 39.1804 45.0354 39.5884 45.9183 40.4992C46.7526 41.364 46.9097 41.1686 47.3897 41.657C47.8668 42.1455 47.7983 42.8178 47.7983 42.8178C45.1897 53.4771 37.7154 62.3379 24.3811 62.3379C11.0469 62.3379 0.238281 51.4688 0.238281 38.0599L0.54971 0.706257C0.54971 0.706257 0.072567 0.0368168 2.53828 0.312638C5.00114 0.588459 5.15542 1.22055 5.15542 1.22055L5.06685 38.0599C5.06685 48.7853 13.7154 57.4823 24.3811 57.4823Z" fill="#1144AA"/>
</g>
<defs>
<clipPath id="clip0_153_1030">
<rect width="92" height="77" fill="white"/>
</clipPath>
</defs>
</svg>
